<svg width="393" height="852" viewBox="0 0 393 852" fill="none" xmlns="http://www.w3.org/2000/svg">
<g clip-path="url(#clip0_7_2)">
<rect width="393" height="852" fill="white"/>
<rect width="393" height="852" fill="#00CA87" fill-opacity="0.1"/>
<path d="M393 0H0V132.5C61.045 181.814 133.442 227.351 188.5 188.962C243.558 150.573 230.268 121.528 279.63 120.227C328.993 118.925 327.844 159.992 393 154.206V0Z" fill="#00CA87"/>
<path d="M42.16 71.528C38.416 71.528 35.2 70.808 32.512 69.368C29.824 67.928 27.76 65.896 26.32 63.272C24.912 60.648 24.208 57.576 24.208 54.056C24.208 51.432 24.608 49.048 25.408 46.904C26.24 44.76 27.424 42.92 28.96 41.384C30.528 39.848 32.416 38.68 34.624 37.88C36.864 37.048 39.376 36.632 42.16 36.632C43.632 36.632 45.152 36.808 46.72 37.16C48.32 37.48 49.728 37.976 50.944 38.648C51.84 39.128 52.464 39.736 52.816 40.472C53.168 41.208 53.28 41.96 53.152 42.728C53.056 43.496 52.784 44.184 52.336 44.792C51.888 45.4 51.312 45.816 50.608 46.04C49.904 46.232 49.136 46.12 48.304 45.704C47.344 45.256 46.384 44.92 45.424 44.696C44.496 44.44 43.52 44.312 42.496 44.312C40.512 44.312 38.848 44.696 37.504 45.464C36.192 46.2 35.2 47.288 34.528 48.728C33.856 50.168 33.52 51.944 33.52 54.056C33.52 56.168 33.856 57.96 34.528 59.432C35.2 60.872 36.192 61.976 37.504 62.744C38.848 63.48 40.512 63.848 42.496 63.848C43.328 63.848 44.224 63.752 45.184 63.56C46.144 63.336 47.088 63 48.016 62.552C48.976 62.136 49.824 62.024 50.56 62.216C51.328 62.408 51.936 62.792 52.384 63.368C52.864 63.944 53.168 64.616 53.296 65.384C53.424 66.12 53.312 66.856 52.96 67.592C52.64 68.328 52.064 68.92 51.232 69.368C50.112 70.04 48.72 70.568 47.056 70.952C45.424 71.336 43.792 71.528 42.16 71.528ZM61.7669 71.432C60.4229 71.432 59.3829 71.064 58.6469 70.328C57.9109 69.592 57.5429 68.52 57.5429 67.112V41.048C57.5429 39.64 57.9109 38.568 58.6469 37.832C59.3829 37.096 60.4229 36.728 61.7669 36.728C63.1429 36.728 64.1989 37.096 64.9349 37.832C65.7029 38.568 66.0869 39.64 66.0869 41.048V51.512H65.3189C66.0869 50.008 67.1749 48.856 68.5829 48.056C70.0229 47.256 71.6549 46.856 73.4789 46.856C75.3669 46.856 76.9189 47.224 78.1349 47.96C79.3509 48.664 80.2629 49.784 80.8709 51.32C81.4789 52.824 81.7829 54.728 81.7829 57.032V67.112C81.7829 68.52 81.4149 69.592 80.6789 70.328C79.9429 71.064 78.8869 71.432 77.5109 71.432C76.1349 71.432 75.0789 71.064 74.3429 70.328C73.6069 69.592 73.2389 68.52 73.2389 67.112V57.368C73.2389 55.928 72.9829 54.904 72.4709 54.296C71.9909 53.688 71.2709 53.384 70.3109 53.384C69.0309 53.384 68.0069 53.8 67.2389 54.632C66.4709 55.432 66.0869 56.52 66.0869 57.896V67.112C66.0869 69.992 64.6469 71.432 61.7669 71.432ZM90.8763 71.432C89.5323 71.432 88.4923 71.032 87.7563 70.232C87.0203 69.432 86.6523 68.28 86.6523 66.776V51.608C86.6523 50.104 87.0203 48.952 87.7563 48.152C88.4923 47.352 89.5323 46.952 90.8763 46.952C92.2523 46.952 93.3083 47.352 94.0443 48.152C94.8123 48.952 95.1963 50.104 95.1963 51.608V66.776C95.1963 68.28 94.8283 69.432 94.0923 70.232C93.3563 71.032 92.2843 71.432 90.8763 71.432ZM90.8763 43.544C89.3723 43.544 88.2043 43.192 87.3723 42.488C86.5723 41.784 86.1723 40.76 86.1723 39.416C86.1723 38.104 86.5723 37.096 87.3723 36.392C88.2043 35.688 89.3723 35.336 90.8763 35.336C92.4443 35.336 93.6283 35.688 94.4283 36.392C95.2283 37.096 95.6283 38.104 95.6283 39.416C95.6283 40.76 95.2283 41.784 94.4283 42.488C93.6283 43.192 92.4443 43.544 90.8763 43.544ZM112.536 71.528C110.136 71.528 108.152 71.16 106.584 70.424C105.048 69.688 103.896 68.584 103.128 67.112C102.36 65.608 101.976 63.736 101.976 61.496V53.672H100.344C99.3203 53.672 98.5203 53.4 97.9443 52.856C97.4002 52.312 97.1282 51.528 97.1282 50.504C97.1282 49.48 97.4002 48.712 97.9443 48.2C98.5203 47.656 99.3203 47.384 100.344 47.384H101.976V44.408C101.976 43 102.344 41.928 103.08 41.192C103.816 40.456 104.872 40.088 106.248 40.088C107.624 40.088 108.68 40.456 109.416 41.192C110.152 41.928 110.52 43 110.52 44.408V47.384H114.456C115.512 47.384 116.312 47.656 116.856 48.2C117.432 48.712 117.72 49.48 117.72 50.504C117.72 51.528 117.432 52.312 116.856 52.856C116.312 53.4 115.512 53.672 114.456 53.672H110.52V61.208C110.52 62.392 110.792 63.272 111.336 63.848C111.912 64.392 112.808 64.664 114.024 64.664C114.472 64.664 114.904 64.616 115.32 64.52C115.736 64.424 116.12 64.376 116.472 64.376C116.984 64.344 117.4 64.504 117.72 64.856C118.04 65.176 118.2 65.928 118.2 67.112C118.2 68.072 118.056 68.888 117.768 69.56C117.48 70.2 116.968 70.664 116.232 70.952C115.784 71.112 115.176 71.24 114.408 71.336C113.64 71.464 113.016 71.528 112.536 71.528ZM151.988 71.528C148.244 71.528 145.028 70.808 142.34 69.368C139.652 67.928 137.588 65.896 136.148 63.272C134.74 60.648 134.036 57.576 134.036 54.056C134.036 51.432 134.436 49.048 135.236 46.904C136.068 44.76 137.252 42.92 138.788 41.384C140.356 39.848 142.244 38.68 144.452 37.88C146.692 37.048 149.204 36.632 151.988 36.632C153.46 36.632 154.98 36.808 156.548 37.16C158.148 37.48 159.556 37.976 160.772 38.648C161.668 39.128 162.292 39.736 162.644 40.472C162.996 41.208 163.108 41.96 162.98 42.728C162.884 43.496 162.612 44.184 162.164 44.792C161.716 45.4 161.14 45.816 160.436 46.04C159.732 46.232 158.964 46.12 158.132 45.704C157.172 45.256 156.212 44.92 155.252 44.696C154.324 44.44 153.348 44.312 152.324 44.312C150.34 44.312 148.676 44.696 147.332 45.464C146.02 46.2 145.028 47.288 144.356 48.728C143.684 50.168 143.348 51.944 143.348 54.056C143.348 56.168 143.684 57.96 144.356 59.432C145.028 60.872 146.02 61.976 147.332 62.744C148.676 63.48 150.34 63.848 152.324 63.848C153.156 63.848 154.052 63.752 155.012 63.56C155.972 63.336 156.916 63 157.844 62.552C158.804 62.136 159.652 62.024 160.388 62.216C161.156 62.408 161.764 62.792 162.212 63.368C162.692 63.944 162.996 64.616 163.124 65.384C163.252 66.12 163.14 66.856 162.788 67.592C162.468 68.328 161.892 68.92 161.06 69.368C159.94 70.04 158.548 70.568 156.884 70.952C155.252 71.336 153.62 71.528 151.988 71.528ZM171.595 71.432C170.251 71.432 169.211 71.064 168.475 70.328C167.739 69.592 167.371 68.52 167.371 67.112V41.048C167.371 39.64 167.739 38.568 168.475 37.832C169.211 37.096 170.251 36.728 171.595 36.728C172.971 36.728 174.027 37.096 174.763 37.832C175.531 38.568 175.915 39.64 175.915 41.048V51.512H175.147C175.915 50.008 177.003 48.856 178.411 48.056C179.851 47.256 181.483 46.856 183.307 46.856C185.195 46.856 186.747 47.224 187.963 47.96C189.179 48.664 190.091 49.784 190.699 51.32C191.307 52.824 191.611 54.728 191.611 57.032V67.112C191.611 68.52 191.243 69.592 190.507 70.328C189.771 71.064 188.715 71.432 187.339 71.432C185.963 71.432 184.907 71.064 184.171 70.328C183.435 69.592 183.067 68.52 183.067 67.112V57.368C183.067 55.928 182.811 54.904 182.299 54.296C181.819 53.688 181.099 53.384 180.139 53.384C178.859 53.384 177.835 53.8 177.067 54.632C176.299 55.432 175.915 56.52 175.915 57.896V67.112C175.915 69.992 174.475 71.432 171.595 71.432ZM204.688 71.528C202.864 71.528 201.248 71.192 199.84 70.52C198.464 69.848 197.376 68.936 196.576 67.784C195.808 66.6 195.424 65.256 195.424 63.752C195.424 62.024 195.872 60.664 196.768 59.672C197.664 58.68 199.104 57.976 201.088 57.56C203.072 57.112 205.712 56.888 209.008 56.888H211.648V60.92H209.008C207.76 60.92 206.72 61.016 205.888 61.208C205.088 61.368 204.496 61.64 204.112 62.024C203.728 62.376 203.536 62.84 203.536 63.416C203.536 64.152 203.792 64.76 204.304 65.24C204.848 65.72 205.616 65.96 206.608 65.96C207.408 65.96 208.112 65.784 208.72 65.432C209.36 65.08 209.872 64.6 210.256 63.992C210.64 63.352 210.832 62.616 210.832 61.784V56.216C210.832 55.064 210.528 54.248 209.92 53.768C209.344 53.288 208.336 53.048 206.896 53.048C206.128 53.048 205.264 53.144 204.304 53.336C203.344 53.496 202.272 53.8 201.088 54.248C200.224 54.568 199.488 54.616 198.88 54.392C198.272 54.168 197.792 53.784 197.44 53.24C197.12 52.696 196.96 52.104 196.96 51.464C196.992 50.824 197.2 50.216 197.584 49.64C198 49.064 198.624 48.616 199.456 48.296C200.992 47.72 202.4 47.336 203.68 47.144C204.992 46.952 206.192 46.856 207.28 46.856C209.904 46.856 212.064 47.24 213.76 48.008C215.488 48.744 216.768 49.896 217.6 51.464C218.464 53 218.896 54.984 218.896 57.416V67.112C218.896 68.52 218.56 69.592 217.888 70.328C217.216 71.064 216.24 71.432 214.96 71.432C213.648 71.432 212.64 71.064 211.936 70.328C211.264 69.592 210.928 68.52 210.928 67.112V65.864L211.216 66.536C211.056 67.56 210.688 68.44 210.112 69.176C209.536 69.912 208.784 70.488 207.856 70.904C206.928 71.32 205.872 71.528 204.688 71.528ZM236.146 71.528C233.746 71.528 231.762 71.16 230.194 70.424C228.658 69.688 227.506 68.584 226.738 67.112C225.97 65.608 225.586 63.736 225.586 61.496V53.672H223.954C222.93 53.672 222.13 53.4 221.554 52.856C221.01 52.312 220.738 51.528 220.738 50.504C220.738 49.48 221.01 48.712 221.554 48.2C222.13 47.656 222.93 47.384 223.954 47.384H225.586V44.408C225.586 43 225.954 41.928 226.69 41.192C227.426 40.456 228.482 40.088 229.858 40.088C231.234 40.088 232.29 40.456 233.026 41.192C233.762 41.928 234.13 43 234.13 44.408V47.384H238.066C239.122 47.384 239.922 47.656 240.466 48.2C241.042 48.712 241.33 49.48 241.33 50.504C241.33 51.528 241.042 52.312 240.466 52.856C239.922 53.4 239.122 53.672 238.066 53.672H234.13V61.208C234.13 62.392 234.402 63.272 234.946 63.848C235.522 64.392 236.418 64.664 237.634 64.664C238.082 64.664 238.514 64.616 238.93 64.52C239.346 64.424 239.73 64.376 240.082 64.376C240.594 64.344 241.01 64.504 241.33 64.856C241.65 65.176 241.81 65.928 241.81 67.112C241.81 68.072 241.666 68.888 241.378 69.56C241.09 70.2 240.578 70.664 239.842 70.952C239.394 71.112 238.786 71.24 238.018 71.336C237.25 71.464 236.626 71.528 236.146 71.528Z" fill="white"/>
</g>
<defs>
<clipPath id="clip0_7_2">
<rect width="393" height="852" fill="white"/>
</clipPath>
</defs>
</svg>
