<svg width="393" height="852" viewBox="0 0 393 852" fill="none" xmlns="http://www.w3.org/2000/svg">
<g clip-path="url(#clip0_7_2)">
<rect width="393" height="852" fill="white"/>
<rect width="393" height="852" fill="#00CA87" fill-opacity="0.1"/>
<path d="M393 0H0V132.5C61.045 181.814 133.442 227.351 188.5 188.962C243.558 150.573 230.268 121.528 279.63 120.227C328.993 118.925 327.844 159.992 393 154.206V0Z" fill="#00CA87"/>
<path d="M42.16 71.528C38.416 71.528 35.2 70.808 32.512 69.368C29.824 67.928 27.76 65.896 26.32 63.272C24.912 60.648 24.208 57.576 24.208 54.056C24.208 51.432 24.608 49.048 25.408 46.904C26.24 44.76 27.424 42.92 28.96 41.384C30.528 39.848 32.416 38.68 34.624 37.88C36.864 37.048 39.376 36.632 42.16 36.632C43.632 36.632 45.152 36.808 46.72 37.16C48.32 37.48 49.728 37.976 50.944 38.648C51.84 39.128 52.464 39.736 52.816 40.472C53.168 41.208 53.28 41.96 53.152 42.728C53.056 43.496 52.784 44.184 52.336 44.792C51.888 45.4 51.312 45.816 50.608 46.04C49.904 46.232 49.136 46.12 48.304 45.704C47.344 45.256 46.384 44.92 45.424 44.696C44.496 44.44 43.52 44.312 42.496 44.312C40.512 44.312 38.848 44.696 37.504 45.464C36.192 46.2 35.2 47.288 34.528 48.728C33.856 50.168 33.52 51.944 33.52 54.056C33.52 56.168 33.856 57.96 34.528 59.432C35.2 60.872 36.192 61.976 37.504 62.744C38.848 63.48 40.512 63.848 42.496 63.848C43.328 63.848 44.224 63.752 45.184 63.56C46.144 63.336 47.088 63 48.016 62.552C48.976 62.136 49.824 62.024 50.56 62.216C51.328 62.408 51.936 62.792 52.384 63.368C52.864 63.944 53.168 64.616 53.296 65.384C53.424 66.12 53.312 66.856 52.96 67.592C52.64 68.328 52.064 68.92 51.232 69.368C50.112 70.04 48.72 70.568 47.056 70.952C45.424 71.336 43.792 71.528 42.16 71.528ZM64.8603 71.528C63.0363 71.528 61.4203 71.192 60.0123 70.52C58.6363 69.848 57.5483 68.936 56.7483 67.784C55.9803 66.6 55.5963 65.256 55.5963 63.752C55.5963 62.024 56.0443 60.664 56.9403 59.672C57.8363 58.68 59.2763 57.976 61.2603 57.56C63.2443 57.112 65.8843 56.888 69.1803 56.888H71.8203V60.92H69.1803C67.9323 60.92 66.8923 61.016 66.0603 61.208C65.2603 61.368 64.6683 61.64 64.2843 62.024C63.9003 62.376 63.7083 62.84 63.7083 63.416C63.7083 64.152 63.9643 64.76 64.4763 65.24C65.0203 65.72 65.7883 65.96 66.7803 65.96C67.5803 65.96 68.2843 65.784 68.8923 65.432C69.5323 65.08 70.0443 64.6 70.4283 63.992C70.8123 63.352 71.0043 62.616 71.0043 61.784V56.216C71.0043 55.064 70.7003 54.248 70.0923 53.768C69.5163 53.288 68.5083 53.048 67.0683 53.048C66.3003 53.048 65.4363 53.144 64.4763 53.336C63.5163 53.496 62.4443 53.8 61.2603 54.248C60.3963 54.568 59.6603 54.616 59.0523 54.392C58.4443 54.168 57.9643 53.784 57.6123 53.24C57.2923 52.696 57.1323 52.104 57.1323 51.464C57.1643 50.824 57.3723 50.216 57.7563 49.64C58.1723 49.064 58.7963 48.616 59.6283 48.296C61.1643 47.72 62.5723 47.336 63.8523 47.144C65.1643 46.952 66.3643 46.856 67.4523 46.856C70.0763 46.856 72.2363 47.24 73.9323 48.008C75.6603 48.744 76.9403 49.896 77.7723 51.464C78.6363 53 79.0683 54.984 79.0683 57.416V67.112C79.0683 68.52 78.7323 69.592 78.0603 70.328C77.3883 71.064 76.4123 71.432 75.1323 71.432C73.8203 71.432 72.8123 71.064 72.1083 70.328C71.4363 69.592 71.1003 68.52 71.1003 67.112V65.864L71.3883 66.536C71.2283 67.56 70.8603 68.44 70.2843 69.176C69.7083 69.912 68.9563 70.488 68.0283 70.904C67.1003 71.32 66.0443 71.528 64.8603 71.528ZM88.3015 71.432C86.8935 71.432 85.8055 71.064 85.0375 70.328C84.3015 69.592 83.9335 68.52 83.9335 67.112V51.224C83.9335 49.848 84.2855 48.792 84.9895 48.056C85.7255 47.32 86.7655 46.952 88.1095 46.952C89.4535 46.952 90.4775 47.32 91.1815 48.056C91.8855 48.792 92.2375 49.848 92.2375 51.224V53.192H91.7575C92.0775 51.272 92.8935 49.752 94.2055 48.632C95.5495 47.512 97.2135 46.92 99.1975 46.856C100.126 46.824 100.814 47.064 101.262 47.576C101.742 48.056 101.998 48.968 102.03 50.312C102.03 51.464 101.79 52.376 101.31 53.048C100.83 53.72 99.9175 54.12 98.5735 54.248L97.4695 54.344C95.7735 54.504 94.5415 54.984 93.7735 55.784C93.0055 56.552 92.6215 57.704 92.6215 59.24V67.112C92.6215 68.52 92.2535 69.592 91.5175 70.328C90.7815 71.064 89.7095 71.432 88.3015 71.432ZM117.188 71.528C114.308 71.528 111.812 71.032 109.7 70.04C107.62 69.016 106.02 67.576 104.9 65.72C103.78 63.864 103.22 61.672 103.22 59.144C103.22 56.712 103.748 54.584 104.804 52.76C105.892 50.904 107.364 49.464 109.22 48.44C111.108 47.384 113.252 46.856 115.652 46.856C117.412 46.856 119.012 47.144 120.452 47.72C121.892 48.264 123.124 49.08 124.148 50.168C125.172 51.224 125.94 52.504 126.452 54.008C126.996 55.512 127.268 57.192 127.268 59.048C127.268 59.688 127.092 60.168 126.74 60.488C126.388 60.776 125.828 60.92 125.06 60.92H110.372V56.888H121.028L120.26 57.512C120.26 56.328 120.1 55.368 119.78 54.632C119.46 53.896 118.98 53.336 118.34 52.952C117.732 52.568 116.964 52.376 116.036 52.376C115.044 52.376 114.18 52.616 113.444 53.096C112.74 53.544 112.196 54.216 111.812 55.112C111.428 56.008 111.236 57.128 111.236 58.472V58.904C111.236 61.176 111.732 62.808 112.724 63.8C113.748 64.76 115.316 65.24 117.428 65.24C118.132 65.24 118.932 65.16 119.828 65C120.756 64.808 121.636 64.552 122.468 64.232C123.3 63.912 124.02 63.864 124.628 64.088C125.236 64.28 125.7 64.632 126.02 65.144C126.372 65.624 126.564 66.184 126.596 66.824C126.628 67.432 126.484 68.04 126.164 68.648C125.844 69.224 125.316 69.672 124.58 69.992C123.46 70.504 122.26 70.888 120.98 71.144C119.732 71.4 118.468 71.528 117.188 71.528ZM143.813 71.528C140.933 71.528 138.437 71.032 136.325 70.04C134.245 69.016 132.645 67.576 131.525 65.72C130.405 63.864 129.845 61.672 129.845 59.144C129.845 56.712 130.373 54.584 131.429 52.76C132.517 50.904 133.989 49.464 135.845 48.44C137.733 47.384 139.877 46.856 142.277 46.856C144.037 46.856 145.637 47.144 147.077 47.72C148.517 48.264 149.749 49.08 150.773 50.168C151.797 51.224 152.565 52.504 153.077 54.008C153.621 55.512 153.893 57.192 153.893 59.048C153.893 59.688 153.717 60.168 153.365 60.488C153.013 60.776 152.453 60.92 151.685 60.92H136.997V56.888H147.653L146.885 57.512C146.885 56.328 146.725 55.368 146.405 54.632C146.085 53.896 145.605 53.336 144.965 52.952C144.357 52.568 143.589 52.376 142.661 52.376C141.669 52.376 140.805 52.616 140.069 53.096C139.365 53.544 138.821 54.216 138.437 55.112C138.053 56.008 137.861 57.128 137.861 58.472V58.904C137.861 61.176 138.357 62.808 139.349 63.8C140.373 64.76 141.941 65.24 144.053 65.24C144.757 65.24 145.557 65.16 146.453 65C147.381 64.808 148.261 64.552 149.093 64.232C149.925 63.912 150.645 63.864 151.253 64.088C151.861 64.28 152.325 64.632 152.645 65.144C152.997 65.624 153.189 66.184 153.221 66.824C153.253 67.432 153.109 68.04 152.789 68.648C152.469 69.224 151.941 69.672 151.205 69.992C150.085 70.504 148.885 70.888 147.605 71.144C146.357 71.4 145.093 71.528 143.813 71.528ZM161.942 71.432C160.534 71.432 159.446 71.064 158.678 70.328C157.942 69.592 157.574 68.52 157.574 67.112V51.224C157.574 49.848 157.926 48.792 158.63 48.056C159.366 47.32 160.406 46.952 161.75 46.952C163.094 46.952 164.118 47.32 164.822 48.056C165.526 48.792 165.878 49.848 165.878 51.224V53.192H165.398C165.718 51.272 166.534 49.752 167.846 48.632C169.19 47.512 170.854 46.92 172.838 46.856C173.766 46.824 174.454 47.064 174.902 47.576C175.382 48.056 175.638 48.968 175.67 50.312C175.67 51.464 175.43 52.376 174.95 53.048C174.47 53.72 173.558 54.12 172.214 54.248L171.11 54.344C169.414 54.504 168.182 54.984 167.414 55.784C166.646 56.552 166.262 57.704 166.262 59.24V67.112C166.262 68.52 165.894 69.592 165.158 70.328C164.422 71.064 163.35 71.432 161.942 71.432ZM209.785 71.528C206.041 71.528 202.825 70.808 200.137 69.368C197.449 67.928 195.385 65.896 193.945 63.272C192.537 60.648 191.833 57.576 191.833 54.056C191.833 51.432 192.233 49.048 193.033 46.904C193.865 44.76 195.049 42.92 196.585 41.384C198.153 39.848 200.041 38.68 202.249 37.88C204.489 37.048 207.001 36.632 209.785 36.632C211.257 36.632 212.777 36.808 214.345 37.16C215.945 37.48 217.353 37.976 218.569 38.648C219.465 39.128 220.089 39.736 220.441 40.472C220.793 41.208 220.905 41.96 220.777 42.728C220.681 43.496 220.409 44.184 219.961 44.792C219.513 45.4 218.937 45.816 218.233 46.04C217.529 46.232 216.761 46.12 215.929 45.704C214.969 45.256 214.009 44.92 213.049 44.696C212.121 44.44 211.145 44.312 210.121 44.312C208.137 44.312 206.473 44.696 205.129 45.464C203.817 46.2 202.825 47.288 202.153 48.728C201.481 50.168 201.145 51.944 201.145 54.056C201.145 56.168 201.481 57.96 202.153 59.432C202.825 60.872 203.817 61.976 205.129 62.744C206.473 63.48 208.137 63.848 210.121 63.848C210.953 63.848 211.849 63.752 212.809 63.56C213.769 63.336 214.713 63 215.641 62.552C216.601 62.136 217.449 62.024 218.185 62.216C218.953 62.408 219.561 62.792 220.009 63.368C220.489 63.944 220.793 64.616 220.921 65.384C221.049 66.12 220.937 66.856 220.585 67.592C220.265 68.328 219.689 68.92 218.857 69.368C217.737 70.04 216.345 70.568 214.681 70.952C213.049 71.336 211.417 71.528 209.785 71.528ZM235.432 71.528C232.808 71.528 230.52 71.032 228.568 70.04C226.616 69.048 225.096 67.624 224.008 65.768C222.92 63.912 222.376 61.72 222.376 59.192C222.376 57.272 222.68 55.56 223.288 54.056C223.896 52.52 224.776 51.224 225.928 50.168C227.08 49.08 228.456 48.264 230.056 47.72C231.656 47.144 233.448 46.856 235.432 46.856C238.056 46.856 240.344 47.352 242.296 48.344C244.248 49.336 245.752 50.76 246.808 52.616C247.896 54.44 248.44 56.632 248.44 59.192C248.44 61.08 248.136 62.792 247.528 64.328C246.92 65.864 246.04 67.176 244.888 68.264C243.768 69.32 242.392 70.136 240.76 70.712C239.16 71.256 237.384 71.528 235.432 71.528ZM235.432 65.24C236.296 65.24 237.064 65.032 237.736 64.616C238.408 64.168 238.92 63.512 239.272 62.648C239.656 61.752 239.848 60.6 239.848 59.192C239.848 57.048 239.432 55.512 238.6 54.584C237.768 53.624 236.712 53.144 235.432 53.144C234.568 53.144 233.8 53.352 233.128 53.768C232.456 54.184 231.928 54.84 231.544 55.736C231.16 56.6 230.968 57.752 230.968 59.192C230.968 61.304 231.384 62.84 232.216 63.8C233.048 64.76 234.12 65.24 235.432 65.24ZM260.563 71.528C258.739 71.528 257.123 71.192 255.715 70.52C254.339 69.848 253.251 68.936 252.451 67.784C251.683 66.6 251.299 65.256 251.299 63.752C251.299 62.024 251.747 60.664 252.643 59.672C253.539 58.68 254.979 57.976 256.963 57.56C258.947 57.112 261.587 56.888 264.883 56.888H267.523V60.92H264.883C263.635 60.92 262.595 61.016 261.763 61.208C260.963 61.368 260.371 61.64 259.987 62.024C259.603 62.376 259.411 62.84 259.411 63.416C259.411 64.152 259.667 64.76 260.179 65.24C260.723 65.72 261.491 65.96 262.483 65.96C263.283 65.96 263.987 65.784 264.595 65.432C265.235 65.08 265.747 64.6 266.131 63.992C266.515 63.352 266.707 62.616 266.707 61.784V56.216C266.707 55.064 266.403 54.248 265.795 53.768C265.219 53.288 264.211 53.048 262.771 53.048C262.003 53.048 261.139 53.144 260.179 53.336C259.219 53.496 258.147 53.8 256.963 54.248C256.099 54.568 255.363 54.616 254.755 54.392C254.147 54.168 253.667 53.784 253.315 53.24C252.995 52.696 252.835 52.104 252.835 51.464C252.867 50.824 253.075 50.216 253.459 49.64C253.875 49.064 254.499 48.616 255.331 48.296C256.867 47.72 258.275 47.336 259.555 47.144C260.867 46.952 262.067 46.856 263.155 46.856C265.779 46.856 267.939 47.24 269.635 48.008C271.363 48.744 272.643 49.896 273.475 51.464C274.339 53 274.771 54.984 274.771 57.416V67.112C274.771 68.52 274.435 69.592 273.763 70.328C273.091 71.064 272.115 71.432 270.835 71.432C269.523 71.432 268.515 71.064 267.811 70.328C267.139 69.592 266.803 68.52 266.803 67.112V65.864L267.091 66.536C266.931 67.56 266.563 68.44 265.987 69.176C265.411 69.912 264.659 70.488 263.731 70.904C262.803 71.32 261.747 71.528 260.563 71.528ZM291.685 71.528C289.029 71.528 286.709 71.032 284.725 70.04C282.773 69.048 281.253 67.624 280.165 65.768C279.077 63.88 278.533 61.672 278.533 59.144C278.533 57.224 278.837 55.512 279.445 54.008C280.053 52.472 280.933 51.176 282.085 50.12C283.269 49.064 284.661 48.264 286.261 47.72C287.893 47.144 289.701 46.856 291.685 46.856C292.613 46.856 293.589 46.952 294.613 47.144C295.637 47.304 296.693 47.624 297.781 48.104C298.549 48.392 299.077 48.84 299.365 49.448C299.685 50.024 299.813 50.648 299.749 51.32C299.717 51.992 299.525 52.6 299.173 53.144C298.853 53.688 298.389 54.056 297.781 54.248C297.205 54.44 296.549 54.36 295.813 54.008C295.301 53.752 294.757 53.576 294.181 53.48C293.637 53.352 293.109 53.288 292.597 53.288C291.733 53.288 290.965 53.416 290.293 53.672C289.653 53.928 289.109 54.312 288.661 54.824C288.213 55.304 287.861 55.912 287.605 56.648C287.381 57.384 287.269 58.216 287.269 59.144C287.269 61 287.733 62.456 288.661 63.512C289.589 64.568 290.901 65.096 292.597 65.096C293.109 65.096 293.637 65.048 294.181 64.952C294.725 64.824 295.269 64.632 295.813 64.376C296.549 64.024 297.205 63.96 297.781 64.184C298.357 64.376 298.821 64.744 299.173 65.288C299.525 65.832 299.717 66.44 299.749 67.112C299.781 67.752 299.637 68.376 299.317 68.984C298.997 69.56 298.453 69.992 297.685 70.28C296.629 70.76 295.589 71.08 294.565 71.24C293.573 71.432 292.613 71.528 291.685 71.528ZM307.111 71.432C305.767 71.432 304.727 71.064 303.991 70.328C303.255 69.592 302.887 68.52 302.887 67.112V41.048C302.887 39.64 303.255 38.568 303.991 37.832C304.727 37.096 305.767 36.728 307.111 36.728C308.487 36.728 309.543 37.096 310.279 37.832C311.047 38.568 311.431 39.64 311.431 41.048V51.512H310.663C311.431 50.008 312.519 48.856 313.927 48.056C315.367 47.256 316.999 46.856 318.823 46.856C320.711 46.856 322.263 47.224 323.479 47.96C324.695 48.664 325.607 49.784 326.215 51.32C326.823 52.824 327.127 54.728 327.127 57.032V67.112C327.127 68.52 326.759 69.592 326.023 70.328C325.287 71.064 324.231 71.432 322.855 71.432C321.479 71.432 320.423 71.064 319.687 70.328C318.951 69.592 318.583 68.52 318.583 67.112V57.368C318.583 55.928 318.327 54.904 317.815 54.296C317.335 53.688 316.615 53.384 315.655 53.384C314.375 53.384 313.351 53.8 312.583 54.632C311.815 55.432 311.431 56.52 311.431 57.896V67.112C311.431 69.992 309.991 71.432 307.111 71.432Z" fill="white"/>
</g>
<defs>
<clipPath id="clip0_7_2">
<rect width="393" height="852" fill="white"/>
</clipPath>
</defs>
</svg>
