<?xml version="1.0" standalone="no"?>
<!DOCTYPE svg PUBLIC "-//W3C//DTD SVG 20010904//EN"
 "http://www.w3.org/TR/2001/REC-SVG-20010904/DTD/svg10.dtd">
<svg version="1.0" xmlns="http://www.w3.org/2000/svg"
 width="2400.000000pt" height="3200.000000pt" viewBox="0 0 2400.000000 3200.000000"
 preserveAspectRatio="xMidYMid meet">

<g transform="translate(0.000000,3200.000000) scale(0.100000,-0.100000)"
fill="#000000" stroke="none">
<path d="M11830 21899 c-19 -4 -84 -11 -144 -14 -87 -5 -114 -10 -134 -25 -14
-11 -32 -20 -41 -20 -9 0 -32 -8 -51 -19 -19 -10 -46 -22 -60 -26 -81 -24
-217 -105 -324 -192 -43 -35 -83 -63 -89 -63 -7 0 -23 -23 -37 -50 -15 -31
-37 -58 -57 -70 -18 -11 -33 -24 -33 -29 0 -6 -18 -20 -40 -31 -36 -18 -43
-19 -68 -7 -15 8 -47 17 -72 20 -25 4 -72 18 -105 32 -33 13 -68 25 -78 25
-11 0 -30 8 -43 19 -16 12 -49 21 -101 26 -43 4 -94 15 -113 25 -19 10 -66 21
-104 25 -44 4 -79 14 -96 27 -21 15 -49 21 -126 25 -54 3 -108 11 -119 17 -24
15 -143 35 -206 35 -50 0 -102 11 -164 35 -34 13 -137 15 -737 16 -673 0 -759
-3 -743 -29 2 -4 -8 -7 -23 -8 -124 -6 -355 -34 -387 -47 -26 -10 -75 -15
-143 -16 -79 0 -116 -5 -160 -21 -31 -12 -99 -28 -151 -35 -52 -8 -102 -21
-110 -28 -10 -9 -50 -17 -96 -21 -57 -5 -89 -13 -109 -27 -16 -12 -48 -23 -70
-25 -23 -3 -53 -13 -68 -23 -16 -12 -52 -22 -95 -26 -39 -4 -83 -15 -103 -27
-19 -11 -55 -26 -80 -33 -25 -7 -63 -20 -85 -28 -22 -8 -59 -15 -82 -16 -29 0
-50 -7 -71 -25 -17 -14 -39 -25 -50 -25 -11 0 -27 -6 -34 -12 -22 -22 -61 -36
-113 -43 -27 -4 -59 -15 -70 -25 -11 -9 -38 -23 -60 -30 -22 -7 -47 -18 -55
-25 -8 -7 -33 -16 -54 -20 -22 -3 -51 -15 -65 -26 -57 -44 -102 -68 -138 -75
-21 -3 -49 -17 -63 -29 -14 -13 -38 -27 -55 -31 -16 -4 -41 -15 -54 -26 -13
-10 -37 -18 -53 -18 -19 0 -38 -10 -56 -29 -15 -16 -37 -32 -49 -35 -11 -4
-24 -13 -27 -21 -3 -8 -18 -15 -33 -15 -15 0 -48 -14 -73 -30 -25 -16 -52 -30
-61 -30 -9 0 -24 -11 -33 -25 -25 -38 -51 -31 -109 30 -28 30 -59 55 -67 55
-9 0 -31 20 -50 45 -22 29 -45 48 -67 54 -18 5 -45 19 -59 30 -15 12 -32 21
-38 21 -6 0 -22 12 -35 25 -13 14 -32 25 -44 25 -25 0 -160 64 -176 84 -8 9
-43 16 -104 21 -51 4 -114 13 -142 21 -72 20 -309 22 -355 2 -19 -8 -73 -18
-120 -22 -59 -6 -91 -13 -108 -27 -14 -10 -32 -19 -42 -19 -9 0 -34 -13 -55
-30 -22 -17 -50 -30 -66 -30 -15 0 -31 -5 -35 -11 -3 -6 -26 -19 -50 -30 -25
-10 -47 -25 -50 -34 -4 -8 -24 -18 -45 -21 -23 -4 -47 -16 -57 -29 -9 -12 -31
-28 -47 -36 -17 -9 -29 -21 -27 -27 1 -7 -5 -12 -13 -12 -8 0 -19 -9 -25 -20
-6 -11 -17 -20 -24 -20 -8 0 -33 -22 -57 -50 -23 -27 -50 -52 -60 -55 -10 -3
-22 -18 -28 -33 -6 -15 -15 -34 -20 -42 -5 -8 -12 -23 -15 -33 -3 -9 -17 -22
-31 -27 -25 -10 -57 -65 -73 -130 -5 -23 -17 -39 -35 -48 -21 -10 -27 -22 -32
-60 -3 -26 -11 -56 -17 -66 -5 -11 -13 -45 -15 -77 -4 -42 -12 -64 -26 -76
-15 -13 -18 -14 -12 -3 5 10 2 9 -11 -3 -17 -16 -19 -37 -23 -229 -1 -116 0
-244 4 -284 6 -68 8 -73 36 -84 28 -12 29 -15 29 -81 0 -38 6 -86 14 -106 8
-21 18 -54 23 -73 6 -23 18 -39 36 -48 16 -8 27 -21 27 -33 0 -11 9 -39 19
-62 10 -23 21 -51 23 -62 2 -11 13 -25 26 -31 34 -17 59 -43 72 -75 7 -16 18
-29 25 -29 20 0 75 -49 75 -66 0 -9 22 -24 50 -36 42 -18 50 -25 56 -54 5 -25
11 -34 26 -34 13 0 18 -6 16 -17 -2 -10 -10 -18 -18 -18 -10 0 -17 -17 -23
-54 -4 -30 -12 -60 -17 -67 -6 -6 -14 -31 -18 -55 -6 -34 -14 -47 -34 -57 -20
-9 -29 -23 -33 -50 -4 -20 -13 -49 -21 -64 -8 -14 -14 -48 -14 -75 0 -44 -3
-49 -33 -63 -28 -13 -33 -21 -37 -65 -3 -27 -11 -59 -17 -70 -6 -11 -13 -51
-15 -89 -3 -65 -5 -70 -33 -86 -26 -14 -31 -24 -37 -73 -4 -31 -13 -67 -19
-79 -10 -18 -15 -60 -18 -161 -1 -10 -9 -21 -18 -24 -34 -13 -41 -30 -48 -119
-4 -49 -12 -98 -18 -109 -6 -11 -13 -87 -15 -168 l-4 -148 -29 -15 c-16 -8
-29 -16 -30 -17 0 -1 -4 -78 -9 -172 -5 -93 -14 -197 -20 -230 -13 -77 -12
-1098 1 -1151 6 -22 14 -128 19 -236 4 -108 13 -205 19 -215 6 -10 11 -14 11
-9 0 5 9 1 20 -9 18 -16 20 -31 20 -144 0 -69 5 -144 12 -166 6 -22 15 -95 21
-161 10 -116 11 -122 37 -138 25 -14 27 -22 34 -102 3 -48 11 -93 16 -99 5 -6
13 -42 17 -80 8 -67 13 -76 55 -89 14 -4 18 -17 18 -61 0 -31 6 -66 12 -78 7
-12 15 -49 18 -81 4 -53 8 -61 35 -76 25 -14 31 -23 33 -61 2 -24 9 -51 16
-59 8 -8 16 -31 20 -52 5 -28 13 -38 35 -46 23 -8 29 -18 35 -51 3 -23 10 -41
15 -41 5 0 12 -23 16 -51 6 -44 11 -52 36 -61 16 -5 29 -15 29 -21 0 -7 11
-35 24 -64 18 -38 32 -54 50 -59 19 -4 29 -16 36 -43 18 -60 44 -105 69 -117
13 -7 34 -30 48 -53 13 -23 37 -48 52 -55 15 -8 38 -35 52 -60 15 -28 34 -49
50 -55 15 -5 30 -20 34 -33 10 -29 42 -58 67 -58 10 0 33 -21 54 -50 20 -28
44 -50 53 -50 9 0 31 -20 48 -44 21 -29 41 -46 61 -51 17 -3 41 -15 54 -26 12
-10 40 -33 60 -50 21 -17 53 -35 72 -40 22 -6 47 -25 66 -49 18 -22 39 -40 48
-40 10 0 32 -9 50 -20 18 -11 39 -20 47 -20 8 0 29 -13 48 -30 19 -16 53 -33
76 -39 23 -5 50 -16 60 -25 10 -9 25 -16 34 -16 9 0 29 -13 44 -30 19 -22 35
-30 60 -30 18 0 60 -11 93 -25 33 -14 66 -25 73 -25 8 0 30 -11 49 -23 20 -14
57 -27 89 -30 30 -4 78 -16 107 -27 29 -11 66 -20 82 -20 49 0 140 -42 146
-68 12 -44 -4 -87 -36 -99 -22 -8 -30 -18 -30 -35 0 -13 -9 -40 -20 -61 -11
-20 -20 -43 -20 -51 0 -7 -12 -19 -27 -25 -21 -9 -34 -27 -50 -70 -13 -32 -23
-68 -23 -80 0 -15 -9 -25 -30 -32 -27 -10 -35 -20 -31 -42 0 -4 -8 -24 -19
-44 -11 -21 -20 -47 -20 -58 0 -40 -12 -61 -39 -72 -20 -7 -30 -19 -34 -39 -2
-16 -10 -42 -16 -59 -6 -16 -13 -46 -16 -65 -4 -28 -12 -38 -33 -46 -26 -10
-30 -17 -36 -69 -3 -31 -11 -66 -17 -77 -6 -12 -13 -46 -15 -76 -4 -53 -21
-81 -50 -82 -7 0 -15 -25 -19 -56 -3 -30 -13 -71 -21 -89 -8 -19 -14 -63 -14
-99 0 -61 -2 -66 -29 -82 -34 -20 -41 -57 -41 -236 0 -84 -3 -117 -12 -120
-10 -4 -14 -85 -16 -353 -3 -295 -1 -356 12 -396 9 -26 16 -81 16 -122 0 -107
8 -135 41 -153 28 -14 29 -18 29 -85 0 -40 6 -82 14 -97 7 -15 17 -46 21 -70
5 -33 12 -43 31 -48 28 -7 47 -35 38 -57 -2 -8 4 -37 16 -66 11 -28 20 -60 20
-71 0 -11 12 -26 29 -35 26 -13 46 -52 40 -81 -5 -26 2 -64 11 -59 5 3 12 -6
16 -20 3 -14 17 -34 31 -44 26 -22 61 -71 81 -114 7 -16 21 -31 32 -34 11 -3
35 -29 55 -58 19 -30 45 -55 57 -58 13 -4 32 -20 42 -38 10 -17 33 -40 51 -51
19 -10 45 -35 60 -54 14 -18 31 -34 37 -34 12 0 102 -68 138 -104 14 -14 40
-28 57 -32 22 -4 45 -21 67 -49 23 -27 46 -45 66 -49 18 -3 43 -15 57 -26 14
-11 30 -20 34 -20 5 0 28 -14 51 -30 22 -17 53 -30 68 -30 15 0 39 -9 53 -20
14 -11 30 -20 36 -20 6 0 32 -13 58 -30 29 -18 61 -30 82 -30 20 0 59 -12 86
-25 28 -14 59 -25 69 -25 11 0 38 -11 60 -24 28 -16 65 -26 116 -31 41 -4 86
-14 99 -22 13 -9 56 -22 95 -30 39 -8 82 -22 95 -30 18 -12 63 -18 160 -23
100 -5 143 -11 161 -23 16 -10 68 -20 140 -28 69 -7 125 -18 140 -27 21 -14
79 -17 340 -23 251 -6 323 -11 352 -23 56 -24 609 -23 653 0 22 12 73 18 196
23 111 4 171 10 181 19 9 7 41 19 72 27 31 8 69 23 84 34 15 10 51 21 80 25
50 5 88 24 136 68 11 10 34 22 53 29 18 6 33 15 33 20 0 5 16 19 35 31 20 11
49 40 65 64 17 23 38 45 49 49 17 5 48 64 60 114 3 14 19 32 35 40 17 10 33
30 40 51 l11 35 155 6 c85 4 217 7 294 8 115 1 144 4 175 20 30 16 73 21 249
30 159 9 219 15 237 27 17 11 66 16 211 20 139 4 209 10 264 24 80 20 181 36
216 33 12 -1 46 -12 75 -26 40 -18 80 -26 153 -30 106 -7 122 -14 143 -65 7
-18 24 -37 38 -42 17 -6 26 -20 31 -45 5 -28 26 -56 86 -116 43 -43 82 -79 87
-79 4 0 21 -13 38 -28 18 -18 46 -31 72 -36 23 -3 54 -14 67 -23 19 -12 55
-17 137 -20 96 -2 117 0 149 17 48 25 72 25 123 1 141 -67 151 -70 240 -77 57
-4 101 -13 120 -24 30 -17 230 -40 353 -40 30 0 63 -6 76 -15 18 -12 76 -17
263 -24 179 -7 247 -13 269 -24 19 -10 91 -19 214 -27 103 -7 203 -19 225 -27
30 -11 138 -17 445 -24 302 -7 418 -13 455 -24 128 -37 1269 -58 1716 -31 146
9 303 16 348 16 55 0 92 5 113 16 23 12 85 17 282 24 138 5 277 9 309 9 32 0
65 5 72 11 7 6 75 18 151 27 95 11 149 22 170 34 23 14 52 19 110 19 45 1 96
7 119 16 22 8 68 23 101 33 34 11 72 26 85 34 31 20 146 32 180 18 15 -5 38
-21 52 -35 15 -14 31 -26 37 -26 7 0 23 -9 37 -20 14 -11 36 -20 48 -20 13 0
45 -11 72 -25 26 -14 73 -28 103 -31 30 -4 66 -13 78 -21 32 -20 293 -19 325
1 12 8 49 17 82 20 35 4 77 17 101 31 24 14 54 25 67 25 22 0 40 11 127 78 14
11 41 26 61 34 19 9 46 31 59 51 14 21 39 41 55 47 21 7 38 25 55 56 14 25 36
51 49 57 14 7 29 26 34 42 5 17 16 37 23 46 8 8 14 26 14 40 0 31 11 48 41 63
16 7 26 23 30 46 3 19 10 44 16 55 6 12 11 133 12 307 2 244 0 291 -13 317 -9
16 -16 44 -16 61 0 26 -6 33 -34 45 -26 11 -35 22 -39 47 -11 67 -39 129 -64
139 -13 5 -36 29 -51 54 -15 25 -37 48 -50 51 -13 4 -34 23 -47 43 -25 36 -25
36 -25 293 0 236 -2 260 -18 276 -49 49 -50 54 -52 259 0 133 -5 207 -14 236
-8 23 -16 74 -20 112 -5 62 -9 73 -36 95 -28 23 -30 30 -31 90 0 36 -6 83 -14
105 -8 22 -18 62 -21 88 -5 38 -12 50 -29 57 -31 12 -36 22 -40 88 -2 31 -11
74 -19 94 -9 21 -16 46 -16 57 0 11 -14 28 -35 41 -30 18 -35 27 -35 59 0 20
-7 46 -15 57 -8 10 -15 30 -15 44 0 32 -11 49 -41 64 -16 7 -25 22 -27 41 -2
17 -9 44 -16 60 -8 17 -19 42 -25 58 -6 15 -22 32 -36 37 -14 5 -25 17 -25 26
0 32 -44 106 -72 120 -19 10 -29 25 -34 52 -10 56 -41 109 -71 124 -18 9 -29
24 -34 44 -8 40 -44 91 -69 99 -10 3 -22 16 -26 28 -3 12 -12 29 -19 37 -7 8
-15 27 -19 42 -4 19 -15 30 -32 34 -31 8 -45 41 -37 89 5 29 12 39 34 47 20 7
30 19 35 41 8 39 21 57 43 57 9 0 33 11 53 25 20 14 43 25 51 25 8 0 26 10 41
21 15 12 47 24 71 27 31 3 52 13 71 33 15 16 34 29 42 29 8 0 25 9 39 20 14
11 36 20 48 20 12 0 34 9 48 20 14 11 46 29 71 40 25 10 46 23 46 28 0 5 17
14 38 20 20 6 57 30 80 52 24 22 53 40 63 40 11 0 30 11 43 25 34 37 94 75
127 82 20 4 41 21 65 54 20 27 44 49 53 49 10 0 35 19 57 43 22 23 56 51 75
62 24 14 35 29 37 48 2 19 12 32 30 40 15 6 48 31 74 56 26 26 58 56 73 68 14
13 28 36 31 52 4 20 15 33 35 41 17 7 37 30 52 58 16 31 32 48 46 50 13 2 26
15 32 30 6 15 17 40 25 55 8 16 14 35 14 43 0 8 14 23 31 33 30 19 58 66 73
124 3 15 17 33 31 39 30 14 75 106 75 154 0 25 6 37 28 49 30 18 72 112 72
162 0 24 6 33 30 43 22 9 31 21 36 49 4 20 13 50 21 68 7 18 13 61 13 96 0 66
8 82 45 89 17 3 21 13 26 73 3 39 11 80 17 92 7 12 14 65 16 118 4 98 5 101
47 125 12 7 18 31 22 94 3 47 12 96 18 108 9 15 14 84 16 208 1 102 3 219 4
260 1 41 8 87 16 103 8 16 12 45 9 72 -2 25 0 45 4 45 23 0 30 64 30 284 0
220 -1 234 -20 251 -12 11 -20 31 -20 51 0 18 -4 35 -9 38 -10 7 -9 31 2 42
10 10 9 54 -2 54 -4 0 -10 114 -13 254 -4 151 -10 261 -17 273 -5 11 -13 58
-16 104 -7 100 -13 131 -23 125 -4 -2 -16 2 -26 10 -17 12 -20 28 -22 107 -2
51 -10 113 -18 137 -9 25 -16 66 -16 92 0 42 -3 48 -35 68 l-35 22 0 83 c0 51
-6 96 -15 118 -8 20 -15 50 -15 67 0 41 -16 69 -46 80 -21 8 -24 16 -24 59 0
27 -5 62 -12 78 -6 15 -17 48 -22 73 -9 35 -16 45 -36 50 -23 5 -26 13 -33 75
-5 38 -15 78 -23 89 -8 11 -14 27 -14 35 0 8 -14 26 -31 40 -16 14 -34 42 -39
61 -18 74 -38 113 -64 127 -15 8 -28 25 -31 41 -3 15 -10 41 -16 57 -6 17 -15
45 -20 62 -7 22 -18 35 -34 39 -18 4 -28 17 -35 45 -6 21 -14 41 -19 43 -5 3
-11 18 -14 33 -4 17 -18 35 -36 45 -21 11 -31 25 -31 40 0 13 -9 37 -20 53
-11 17 -20 39 -20 50 0 25 -18 45 -40 45 -10 0 -26 21 -41 55 -16 37 -35 62
-56 75 -25 15 -33 26 -33 48 0 15 -4 32 -9 37 -17 19 -20 61 -7 86 7 14 16 37
19 51 4 15 18 30 35 37 28 12 56 54 66 103 4 17 16 29 36 36 22 8 30 17 30 34
0 13 7 37 16 53 8 17 18 51 21 78 5 38 11 51 33 64 26 15 28 22 39 132 15 153
15 166 1 306 -7 76 -16 124 -25 130 -7 6 -20 15 -29 20 -9 6 -16 25 -17 45 0
19 -10 73 -22 119 -19 74 -25 85 -49 93 -16 6 -28 16 -28 24 0 36 -46 113 -75
126 -20 8 -31 22 -33 38 -5 32 -46 87 -71 95 -11 3 -29 21 -40 40 -16 28 -27
35 -51 35 -16 0 -30 4 -30 9 0 19 -76 91 -96 91 -12 0 -33 9 -47 20 -14 11
-32 20 -39 20 -8 0 -34 13 -59 29 -34 22 -61 30 -119 36 -41 4 -78 11 -81 17
-12 19 -94 27 -282 28 -168 0 -192 -2 -227 -20 -21 -11 -71 -23 -112 -27 -57
-5 -81 -12 -112 -35 -21 -15 -43 -28 -48 -28 -6 0 -21 -9 -35 -20 -14 -11 -36
-20 -48 -20 -14 0 -33 -13 -49 -35 -15 -19 -34 -35 -42 -35 -7 0 -14 -7 -14
-15 0 -9 -9 -15 -22 -15 -12 0 -36 -15 -53 -32 -18 -18 -54 -53 -80 -78 -47
-44 -51 -45 -111 -45 -52 0 -67 4 -84 23 -11 12 -39 25 -61 28 -22 4 -43 13
-46 20 -3 8 -24 19 -47 26 -22 6 -57 22 -76 35 -23 15 -49 23 -77 23 -30 0
-43 4 -43 14 0 8 -15 17 -34 20 -19 4 -56 19 -82 33 -26 15 -70 30 -97 34 -27
5 -57 14 -66 22 -9 8 -43 19 -76 26 -33 7 -73 21 -90 31 -16 9 -57 20 -90 23
-33 4 -89 18 -124 32 -36 14 -74 25 -85 25 -12 0 -35 9 -52 19 -22 13 -61 22
-125 27 -52 4 -112 13 -134 21 -22 8 -74 19 -115 24 -41 6 -102 20 -135 31
-44 15 -95 21 -190 25 -71 2 -139 8 -150 12 -63 25 -106 32 -222 36 -226 8
-313 16 -356 31 -32 12 -70 14 -162 10 -155 -7 -361 -9 -372 -4 -12 6 -182 1
-233 -7 -25 -4 -50 -11 -56 -16 -12 -10 -14 -10 -154 -10 -124 1 -307 -17
-334 -31 -11 -6 -82 -15 -156 -19 -108 -5 -144 -11 -175 -28 -25 -12 -69 -23
-114 -26 -41 -3 -86 -12 -100 -19 -29 -15 -150 -36 -208 -36 -21 0 -55 -9 -75
-20 -21 -11 -57 -23 -80 -26 -24 -4 -52 -15 -63 -25 -14 -12 -44 -20 -100 -25
-46 -4 -93 -14 -110 -24 -16 -9 -52 -23 -78 -29 -27 -6 -65 -20 -85 -31 -45
-25 -124 -27 -143 -4 -7 8 -24 21 -39 29 -24 12 -27 19 -28 80 -1 36 -9 79
-17 95 -8 16 -15 43 -15 60 0 26 -5 33 -30 42 -20 7 -32 19 -36 36 -20 96 -39
136 -72 151 -23 10 -31 22 -36 50 -3 20 -17 48 -33 63 -92 89 -110 105 -133
115 -14 6 -37 27 -50 47 -18 26 -32 36 -52 36 -16 0 -42 13 -61 30 -19 17 -39
30 -44 30 -6 0 -22 9 -36 20 -14 11 -39 23 -56 26 -17 4 -36 12 -42 20 -6 7
-27 16 -48 20 -20 3 -52 17 -71 30 -31 20 -54 25 -180 34 -222 15 -342 18
-380 9z m440 -240 c14 -9 38 -19 54 -23 16 -4 43 -17 60 -30 17 -13 45 -26 62
-29 31 -6 81 -34 136 -77 15 -11 40 -25 55 -31 15 -5 43 -30 61 -54 18 -25 39
-45 47 -45 9 0 29 -22 45 -48 16 -27 40 -53 53 -59 13 -6 36 -36 52 -67 23
-46 26 -58 15 -71 -18 -22 -32 -19 -74 14 -20 16 -50 32 -66 36 -16 3 -34 13
-40 20 -26 31 -104 67 -168 77 -37 5 -76 15 -87 22 -11 7 -32 16 -47 19 -14 4
-39 18 -55 31 -16 14 -48 26 -78 30 -27 4 -68 16 -89 27 -76 39 -365 35 -429
-5 -12 -8 -51 -17 -86 -21 -45 -5 -78 -16 -109 -36 -25 -16 -51 -29 -57 -29
-11 0 -111 -69 -128 -89 -5 -5 -18 -18 -28 -30 -24 -27 -87 -28 -120 -3 -13
10 -37 24 -54 31 -16 7 -46 26 -65 42 -30 26 -33 32 -20 42 8 7 23 25 33 40
10 16 32 33 48 39 17 6 41 27 55 49 15 24 35 41 52 45 15 4 42 20 60 36 18 15
41 28 51 28 10 0 26 9 36 20 11 13 31 20 53 20 18 0 46 9 61 19 15 11 43 22
62 26 20 4 49 17 65 31 l29 24 265 -3 c223 -2 270 -5 290 -18z m-3131 -229
c179 -8 249 -14 300 -29 46 -14 115 -22 225 -27 117 -5 171 -12 200 -24 23
-10 84 -23 136 -30 52 -7 105 -20 117 -28 13 -8 59 -16 105 -19 49 -3 99 -12
123 -23 22 -10 65 -26 95 -35 30 -10 61 -23 68 -28 8 -6 41 -14 73 -18 33 -4
68 -14 77 -22 9 -8 44 -22 77 -32 33 -9 71 -23 85 -30 14 -8 46 -17 71 -20 25
-3 61 -17 80 -30 18 -14 38 -25 44 -25 7 0 20 -8 29 -19 9 -10 37 -21 62 -25
31 -4 59 -17 90 -42 48 -40 51 -55 13 -64 -15 -4 -28 -17 -34 -35 -5 -17 -13
-32 -16 -35 -3 -3 -10 -16 -14 -30 -4 -14 -22 -39 -41 -57 -19 -18 -34 -38
-34 -46 0 -8 -9 -34 -20 -58 -11 -24 -20 -56 -20 -71 0 -17 -5 -28 -14 -28
-30 0 -41 -35 -55 -169 -17 -170 -17 -213 1 -379 14 -130 21 -151 54 -152 5 0
15 -21 21 -47 22 -92 37 -126 66 -142 16 -9 30 -28 34 -43 3 -15 12 -33 19
-39 8 -6 14 -19 14 -29 0 -10 16 -30 35 -44 48 -37 48 -75 1 -111 -18 -14 -44
-46 -57 -71 -14 -26 -33 -47 -46 -50 -16 -4 -31 -24 -49 -64 -15 -34 -35 -62
-49 -68 -22 -10 -75 -105 -75 -136 0 -9 -13 -22 -29 -30 -28 -15 -71 -82 -71
-112 0 -8 -11 -19 -24 -25 -23 -11 -46 -47 -46 -74 0 -7 -7 -26 -14 -42 -8
-15 -17 -36 -20 -46 -3 -9 -16 -21 -29 -26 -25 -10 -37 -29 -37 -62 0 -10 -9
-36 -20 -56 -11 -21 -20 -45 -20 -55 0 -9 -12 -23 -27 -30 -23 -11 -29 -22
-35 -64 -4 -28 -14 -64 -23 -80 -8 -16 -15 -39 -15 -51 0 -12 -12 -30 -29 -42
-22 -16 -30 -32 -36 -68 -4 -27 -12 -57 -18 -68 -6 -11 -14 -42 -17 -70 -4
-40 -10 -52 -30 -62 -30 -15 -38 -34 -40 -93 0 -25 -7 -56 -15 -70 -8 -14 -14
-44 -15 -68 0 -49 -14 -82 -35 -82 -23 0 -35 -34 -35 -100 0 -33 -7 -77 -16
-98 -9 -20 -18 -72 -21 -114 -3 -43 -10 -75 -14 -72 -5 2 -17 -4 -27 -14 -16
-16 -20 -41 -25 -170 -4 -88 -11 -161 -18 -174 -8 -14 -14 -85 -17 -184 -4
-141 -7 -164 -24 -185 -11 -13 -16 -17 -12 -9 5 11 2 11 -11 -2 -17 -16 -19
-53 -22 -570 -3 -415 -7 -554 -16 -560 -7 -4 -28 -8 -48 -8 -35 0 -46 6 -142
81 -19 15 -43 22 -76 22 -47 1 -59 -6 -110 -57 -62 -64 -87 -86 -96 -86 -5 0
-28 -14 -49 -30 -34 -26 -48 -30 -102 -30 -35 0 -65 4 -68 9 -4 5 -9 31 -12
58 -6 48 -30 112 -49 125 -15 12 -85 9 -85 -2 0 -6 -12 -16 -27 -23 -40 -17
-43 -23 -43 -117 0 -88 15 -130 46 -130 8 0 14 -4 14 -10 0 -17 61 -80 78 -80
8 0 23 -7 33 -16 13 -12 39 -16 103 -16 72 0 90 3 112 21 15 12 34 21 44 21 9
0 34 11 55 25 20 14 50 28 65 32 16 3 41 18 56 34 35 36 48 36 115 -1 43 -23
67 -30 114 -30 88 0 91 -3 87 -111 -2 -51 -8 -102 -15 -113 -6 -12 -14 -79
-17 -150 -4 -76 -11 -131 -17 -133 -5 -2 -19 -10 -29 -18 -18 -13 -19 -34 -23
-370 -4 -418 1 -505 31 -513 27 -7 38 -41 38 -118 0 -36 6 -77 14 -92 7 -15
16 -56 20 -92 5 -56 10 -68 36 -90 21 -17 30 -34 30 -53 0 -15 7 -42 16 -58 8
-17 18 -53 21 -81 5 -43 10 -51 34 -60 21 -7 29 -18 34 -46 4 -20 12 -44 20
-52 7 -8 15 -27 19 -42 3 -15 15 -30 26 -33 13 -4 33 -32 51 -71 20 -41 39
-68 53 -74 13 -5 35 -32 51 -64 15 -31 36 -58 45 -61 10 -3 36 -28 59 -55 22
-27 49 -51 60 -55 10 -3 23 -17 29 -30 7 -14 27 -32 45 -41 30 -15 47 -44 25
-44 -5 0 -7 -4 -4 -8 8 -13 -29 -31 -45 -21 -23 14 -383 11 -397 -3 -8 -8 -69
-14 -185 -18 -94 -4 -181 -11 -192 -17 -47 -26 -69 -62 -73 -122 -9 -120 27
-138 247 -121 98 7 164 17 178 26 32 20 444 20 476 0 12 -7 65 -19 117 -25 64
-8 104 -18 122 -31 15 -11 37 -20 49 -20 23 0 75 -30 160 -93 28 -20 55 -37
59 -37 18 0 68 -90 71 -127 3 -49 -10 -120 -27 -155 -8 -15 -14 -46 -14 -70 0
-37 -4 -45 -29 -59 -26 -15 -29 -23 -35 -90 -8 -86 -7 -227 1 -317 5 -57 8
-64 35 -78 l29 -15 -3 -92 c-3 -85 -5 -92 -24 -95 -12 -2 -40 -23 -63 -47 -29
-30 -56 -48 -84 -55 -23 -6 -65 -22 -93 -35 -28 -14 -59 -25 -68 -25 -9 0 -36
-10 -59 -22 -41 -21 -54 -21 -511 -25 -308 -2 -474 -7 -482 -14 -16 -13 -28
-107 -19 -149 5 -21 16 -35 33 -43 15 -6 35 -17 44 -25 11 -9 55 -19 105 -24
88 -8 197 -22 263 -33 30 -5 184 6 470 34 36 4 76 14 90 23 16 10 59 19 118
23 67 5 98 12 116 26 13 10 31 19 39 19 8 0 30 11 49 23 19 13 47 27 63 31 15
4 40 16 54 27 131 101 133 101 195 17 15 -21 33 -38 41 -38 8 0 33 -20 55 -44
23 -24 54 -47 68 -51 15 -4 34 -13 42 -20 42 -37 129 -88 160 -93 19 -3 46
-13 59 -24 13 -10 29 -18 36 -18 7 0 34 -12 60 -26 27 -14 70 -28 96 -31 55
-6 58 -8 84 -48 17 -26 20 -53 23 -210 l4 -180 63 -62 c35 -35 70 -63 78 -63
7 0 22 -9 32 -20 10 -11 38 -26 62 -32 26 -6 52 -21 64 -37 11 -14 30 -28 42
-31 19 -5 22 -14 25 -68 3 -59 2 -62 -23 -68 -14 -4 -27 -15 -30 -28 -3 -11
-6 -99 -7 -194 -3 -140 -6 -175 -18 -183 -22 -15 -98 -4 -121 17 -17 16 -41
20 -135 23 -101 3 -118 1 -159 -19 -25 -12 -51 -20 -58 -17 -16 6 -40 -11 -56
-41 -7 -13 -23 -27 -37 -32 -13 -5 -29 -20 -35 -32 -28 -63 -47 -90 -69 -101
-14 -7 -27 -25 -31 -42 -4 -17 -14 -47 -23 -67 -9 -21 -16 -49 -16 -62 0 -17
-9 -30 -27 -40 -26 -13 -29 -20 -40 -113 -6 -54 -16 -116 -22 -138 -17 -65
-14 -254 6 -315 17 -52 17 -53 -6 -71 -29 -24 -54 -24 -88 -1 -24 15 -53 17
-228 16 -146 0 -207 -4 -225 -14 -20 -11 -161 -31 -314 -45 -21 -2 -48 -11
-61 -19 -18 -12 -82 -17 -308 -24 -245 -7 -287 -11 -302 -25 -12 -13 -35 -17
-88 -17 -40 0 -126 -5 -192 -10 -100 -7 -127 -6 -168 7 l-48 16 2 54 c1 30 7
57 12 60 6 4 7 1 2 -7 -6 -9 -4 -11 4 -6 7 5 10 15 6 23 -4 12 -3 13 8 5 14
-12 27 -6 27 12 0 6 -5 4 -10 -4 -9 -13 -10 -13 -11 0 -1 8 -1 20 0 26 1 6 -6
18 -16 25 -9 8 -14 9 -10 2 4 -6 3 -15 -3 -18 -6 -4 -10 -3 -8 2 7 29 -16 281
-28 298 -8 11 -14 35 -14 55 0 39 -6 50 -35 66 -11 6 -24 29 -30 51 -5 22 -15
46 -21 54 -6 8 -14 22 -17 32 -4 9 -17 21 -30 26 -13 5 -34 26 -45 46 -12 20
-35 42 -52 49 -17 7 -44 31 -60 53 -21 28 -41 44 -63 48 -18 4 -39 13 -47 19
-8 7 -36 20 -62 30 -25 9 -52 24 -58 32 -15 17 -98 19 -132 3 -24 -11 -68 -91
-68 -123 0 -11 9 -38 20 -60 22 -45 113 -106 157 -106 14 0 38 -13 55 -30 16
-16 34 -30 39 -30 13 0 79 -67 79 -79 0 -6 14 -17 30 -26 17 -9 30 -22 30 -29
0 -8 9 -33 20 -57 11 -24 20 -59 20 -77 0 -26 6 -37 29 -49 l28 -17 6 -145 c3
-80 2 -195 -1 -256 -7 -106 -8 -110 -33 -122 -22 -11 -27 -22 -32 -64 -8 -68
-42 -137 -72 -145 -12 -3 -37 -25 -54 -49 -22 -30 -41 -46 -64 -51 -17 -3 -44
-16 -59 -28 -70 -55 -113 -73 -187 -80 -43 -4 -82 -13 -91 -21 -18 -16 -128
-35 -211 -35 -42 0 -63 -5 -83 -21 -25 -20 -34 -20 -424 -17 -281 2 -403 6
-413 14 -8 7 -59 15 -114 19 -196 13 -308 26 -335 40 -17 9 -81 16 -181 21
-120 5 -162 11 -191 25 -21 11 -53 19 -73 19 -46 0 -124 19 -152 38 -13 8 -69
18 -134 23 -73 6 -118 14 -128 23 -9 8 -38 20 -65 26 -26 6 -64 19 -84 30 -21
11 -63 22 -96 26 -43 4 -65 12 -83 30 -13 13 -34 24 -47 24 -13 0 -34 8 -47
19 -13 10 -41 21 -62 25 -21 4 -59 20 -84 37 -26 16 -51 29 -56 29 -5 0 -20 9
-34 20 -14 11 -35 20 -46 20 -10 0 -35 14 -54 30 -18 17 -39 30 -44 30 -6 0
-24 11 -41 25 -16 14 -38 25 -48 25 -9 0 -34 20 -54 45 -21 25 -46 45 -56 45
-18 0 -70 53 -70 71 0 6 -15 16 -33 24 -35 14 -54 33 -72 68 -6 12 -20 27 -33
33 -35 17 -60 43 -66 70 -4 13 -19 30 -35 38 -16 9 -41 36 -56 61 -14 25 -37
50 -50 55 -17 6 -26 20 -31 44 -3 19 -12 40 -20 47 -8 6 -14 22 -14 35 0 15
-10 30 -28 41 -34 22 -42 33 -42 60 0 12 -7 34 -15 50 -8 15 -17 45 -20 65 -4
29 -13 42 -35 53 -25 13 -30 22 -30 53 0 20 -7 51 -16 67 -9 17 -18 64 -21
105 -5 72 -17 105 -33 95 -26 -16 -28 14 -46 485 -4 123 18 573 29 587 5 7 13
11 17 8 17 -11 28 25 34 114 3 52 11 100 17 108 7 7 14 45 17 83 4 64 7 72 32
87 29 16 40 46 40 107 0 17 7 40 15 50 8 11 15 35 15 54 0 40 15 72 35 72 19
0 28 17 36 70 9 59 51 175 64 175 19 0 35 16 35 36 0 11 8 34 17 52 9 18 19
48 22 67 5 25 14 39 33 47 17 9 28 24 32 46 11 52 49 121 74 132 14 6 24 22
28 42 4 18 10 36 15 39 5 2 13 23 19 44 8 28 20 44 40 55 17 9 30 23 30 32 0
9 11 31 25 49 l25 33 139 -6 139 -6 16 25 c9 14 27 30 41 36 23 11 25 17 25
77 0 53 -3 67 -17 72 -10 4 -34 17 -53 29 -23 14 -58 24 -104 28 -38 3 -76 12
-85 19 -11 10 -63 18 -157 24 -105 8 -147 14 -167 28 -15 10 -48 22 -74 26
-26 5 -54 16 -64 25 -10 9 -45 17 -90 21 -46 3 -86 13 -105 24 -17 11 -41 19
-53 19 -12 0 -40 12 -62 26 -22 14 -64 29 -93 34 -29 4 -69 19 -89 32 -21 12
-52 32 -71 44 -18 12 -49 24 -69 28 -20 4 -50 18 -66 31 -16 14 -33 25 -38 25
-5 0 -24 11 -43 25 -19 14 -43 25 -55 25 -12 0 -42 22 -70 50 -27 28 -56 50
-65 50 -25 0 -153 96 -228 173 -21 20 -45 37 -54 37 -9 0 -34 21 -54 46 -21
25 -49 50 -61 55 -13 5 -26 17 -30 26 -11 31 -54 83 -68 83 -8 0 -32 27 -52
59 -20 33 -47 64 -60 70 -13 6 -23 17 -23 24 0 8 -9 26 -20 40 -11 14 -20 34
-20 46 0 11 -15 31 -34 46 -19 14 -43 47 -55 76 -14 32 -31 53 -46 59 -15 6
-27 20 -30 37 -3 15 -12 42 -20 58 -8 17 -17 43 -21 58 -4 17 -16 32 -30 37
-14 6 -26 20 -29 37 -3 15 -13 43 -22 61 -9 18 -19 52 -22 75 -5 33 -12 45
-33 55 -23 11 -28 21 -34 70 -3 31 -13 69 -20 84 -8 15 -14 46 -14 70 0 50 -7
64 -35 69 -21 4 -32 34 -34 89 -1 19 -8 52 -15 75 -8 22 -18 78 -21 125 -6 80
-8 86 -34 101 -28 16 -28 18 -33 141 -3 69 -11 134 -16 145 -6 11 -14 95 -18
187 -5 124 -11 171 -21 182 -8 8 -19 11 -25 8 -7 -4 -8 -2 -4 4 4 7 3 12 -2
12 -16 0 -46 954 -31 996 4 11 11 150 15 307 4 158 11 287 15 287 40 0 45 19
53 197 4 114 12 184 21 207 9 22 15 69 15 123 0 109 6 130 35 137 22 6 24 13
30 103 4 54 13 111 21 127 8 16 14 45 15 65 1 53 12 83 34 95 30 17 35 27 35
76 0 25 7 58 15 74 8 15 15 38 15 51 0 53 13 86 40 100 22 12 29 23 34 64 4
28 11 53 16 56 5 3 12 28 16 56 5 39 13 54 35 70 19 13 30 32 34 57 4 20 13
49 21 64 8 14 14 37 14 50 0 13 6 33 14 44 13 17 28 19 142 20 152 1 154 3
154 106 0 73 -19 108 -59 108 -10 0 -45 14 -76 30 -31 17 -63 30 -69 30 -7 0
-21 9 -31 20 -10 11 -29 20 -43 20 -25 0 -117 55 -141 84 -7 8 -28 20 -46 26
-24 8 -42 25 -60 56 -14 24 -39 51 -55 59 -16 8 -32 25 -35 37 -4 13 -13 30
-20 38 -7 8 -15 28 -19 43 -4 16 -17 33 -31 39 -25 11 -29 18 -40 78 -4 19
-12 40 -17 47 -5 7 -12 75 -15 153 -4 100 -10 143 -19 151 -8 6 -14 8 -14 4 0
-4 -7 -2 -15 5 -12 10 -15 37 -15 126 l0 113 27 13 c27 13 28 18 35 107 4 52
14 109 23 127 8 18 15 41 15 52 0 33 11 53 36 62 14 6 26 20 29 37 11 50 49
114 77 129 16 8 28 18 28 23 0 16 53 91 64 91 5 0 33 24 62 53 89 90 129 126
155 137 13 6 39 22 58 35 23 17 47 25 76 25 29 0 45 5 49 15 3 8 12 15 20 15
8 0 27 6 43 14 118 59 106 57 409 54 250 -3 284 -5 301 -20 10 -10 39 -25 63
-33 25 -9 48 -22 53 -30 5 -9 23 -15 43 -15 21 0 50 -10 72 -25 20 -14 40 -25
44 -25 3 0 20 -13 36 -30 17 -16 40 -30 51 -30 12 0 32 -18 53 -46 18 -26 43
-50 55 -55 12 -4 29 -23 38 -41 31 -65 46 -88 65 -98 26 -14 66 -103 73 -160
3 -24 12 -46 19 -49 7 -2 33 -26 57 -53 50 -54 93 -64 126 -28 10 11 26 20 36
20 27 0 39 31 39 97 0 100 -9 132 -42 149 -25 13 -29 20 -26 51 2 23 10 40 23
47 11 6 36 23 56 39 20 15 46 27 57 27 10 0 36 14 57 30 21 17 43 30 50 30 6
0 20 9 30 20 10 11 34 23 54 26 20 4 51 20 69 35 18 16 40 29 48 29 9 0 27 9
41 20 14 11 41 20 60 20 20 0 36 6 39 14 3 8 20 20 37 27 18 7 45 23 60 36 16
13 42 23 60 23 18 0 50 12 72 25 22 14 47 25 56 25 8 0 30 11 49 25 22 16 41
23 56 19 12 -3 25 -1 28 5 4 6 18 11 30 11 21 0 145 58 173 82 6 5 38 12 70
15 32 3 74 14 95 24 20 10 58 23 84 29 27 6 57 18 67 27 12 11 46 19 107 23
60 4 95 12 107 22 10 9 51 23 91 31 40 9 84 22 97 31 16 11 48 16 92 16 37 1
86 8 108 16 22 9 79 22 127 30 47 7 108 22 135 33 39 15 88 20 267 26 183 6
226 10 262 26 36 17 77 21 246 25 112 4 205 8 207 10 8 8 520 3 750 -6z m6496
-375 c132 -4 253 -2 269 2 18 6 45 5 68 -1 27 -7 51 -7 80 1 24 6 45 8 48 5
11 -15 92 -29 177 -31 108 -2 307 -17 348 -26 17 -4 35 -8 40 -9 6 -1 26 -7
45 -13 19 -6 95 -14 167 -17 78 -4 150 -13 175 -22 24 -8 81 -20 128 -25 47
-5 103 -18 125 -29 22 -10 76 -22 120 -25 44 -4 87 -13 95 -21 15 -12 51 -23
153 -46 27 -6 51 -17 54 -25 3 -7 20 -13 40 -13 19 0 44 -5 55 -11 21 -12 112
-36 156 -43 13 -2 30 -12 37 -23 11 -15 29 -22 70 -25 31 -3 62 -12 73 -21 10
-9 24 -17 30 -17 7 0 30 -11 51 -24 41 -27 102 -46 142 -46 15 0 32 -7 39 -15
18 -21 129 -77 170 -84 32 -6 36 -11 46 -51 7 -27 8 -57 2 -75 -4 -16 -8 -82
-8 -145 0 -89 -4 -121 -16 -138 -8 -12 -20 -20 -25 -17 -5 3 -6 -2 -2 -11 5
-13 3 -15 -8 -9 -11 7 -11 5 1 -10 9 -11 10 -16 3 -11 -8 4 -13 1 -13 -9 0
-10 5 -14 13 -9 9 5 9 4 0 -6 -10 -10 -8 -18 9 -35 23 -24 33 -70 13 -57 -6 4
-4 0 6 -8 12 -12 16 -37 18 -105 1 -50 8 -110 16 -135 8 -25 18 -58 23 -75 5
-16 19 -35 31 -41 16 -8 31 -35 50 -90 22 -63 33 -81 53 -88 14 -5 35 -28 49
-52 16 -31 33 -47 56 -55 22 -7 33 -17 33 -30 0 -32 29 -66 60 -72 16 -4 34
-16 41 -29 19 -37 51 -68 71 -68 10 0 37 -19 61 -43 26 -26 68 -53 110 -71 37
-16 83 -41 102 -56 21 -17 58 -32 96 -39 34 -7 74 -20 88 -29 21 -14 54 -17
217 -16 178 0 194 2 228 22 24 14 54 22 85 22 37 0 57 7 87 28 21 15 54 34 72
41 17 7 32 17 32 22 0 5 27 9 60 9 46 0 62 -4 67 -16 3 -8 16 -20 30 -25 13
-5 26 -17 29 -26 3 -10 11 -31 18 -48 8 -16 18 -42 24 -57 6 -15 20 -28 33
-30 16 -2 28 -19 47 -65 20 -48 31 -64 54 -72 20 -7 28 -17 28 -33 1 -13 9
-41 20 -63 11 -22 19 -45 20 -51 0 -6 15 -17 33 -25 26 -11 33 -21 35 -48 2
-19 10 -44 18 -55 8 -11 14 -30 14 -42 0 -32 10 -54 25 -54 23 0 45 -30 45
-60 0 -16 7 -41 15 -57 8 -15 17 -41 20 -56 4 -21 13 -29 35 -34 26 -5 30 -10
30 -37 0 -17 9 -57 20 -89 11 -31 20 -65 20 -75 0 -10 12 -22 28 -28 25 -10
30 -19 40 -70 22 -118 36 -154 70 -174 30 -19 32 -23 32 -79 0 -40 5 -63 15
-71 11 -9 15 -33 15 -92 l0 -79 35 -20 35 -21 0 -87 c0 -57 5 -93 14 -106 7
-11 17 -54 20 -96 7 -67 10 -78 32 -90 30 -16 32 -25 37 -171 2 -76 8 -122 16
-132 10 -11 15 -76 19 -232 4 -168 8 -217 18 -221 8 -3 14 -14 14 -26 0 -11 8
-29 18 -40 15 -17 17 -50 17 -381 l0 -362 -26 -32 c-15 -17 -29 -29 -32 -26
-2 2 -6 -88 -9 -200 -3 -151 -8 -209 -18 -221 -9 -11 -15 -54 -17 -128 -5
-141 -7 -150 -37 -167 -21 -10 -26 -23 -31 -69 -3 -31 -10 -69 -16 -86 -6 -16
-14 -70 -18 -119 -5 -59 -12 -91 -21 -94 -33 -11 -50 -43 -50 -94 0 -29 -7
-66 -15 -82 -8 -15 -15 -41 -15 -56 0 -43 -16 -77 -39 -83 -12 -3 -22 -11 -24
-19 -2 -7 -14 -42 -25 -78 -12 -36 -22 -75 -22 -87 0 -14 -10 -27 -27 -35 -21
-10 -33 -30 -54 -93 -22 -63 -33 -81 -51 -85 -16 -4 -26 -17 -33 -42 -6 -21
-16 -43 -23 -50 -6 -6 -12 -23 -12 -37 0 -27 -26 -61 -46 -61 -7 0 -25 -24
-41 -52 -19 -36 -35 -54 -50 -56 -15 -2 -29 -18 -44 -49 -15 -30 -31 -48 -50
-55 -18 -6 -38 -27 -57 -61 -16 -29 -41 -58 -55 -66 -14 -7 -38 -31 -53 -52
-16 -21 -37 -41 -47 -45 -10 -3 -34 -23 -54 -45 -20 -21 -42 -39 -50 -39 -7 0
-28 -20 -45 -45 -18 -25 -43 -48 -55 -51 -12 -4 -38 -28 -58 -55 -30 -42 -40
-49 -69 -49 -19 0 -37 -4 -41 -9 -9 -16 -142 -101 -157 -101 -7 0 -30 -11 -50
-25 -20 -14 -41 -25 -45 -25 -4 0 -21 -11 -37 -25 -16 -14 -41 -25 -56 -25
-15 0 -35 -9 -44 -19 -10 -11 -32 -25 -49 -32 -18 -7 -40 -21 -50 -31 -10 -10
-32 -18 -52 -18 -21 0 -44 -9 -62 -24 -16 -13 -47 -29 -70 -35 -22 -6 -46 -17
-52 -25 -6 -7 -31 -16 -54 -19 -24 -3 -72 -20 -108 -37 -35 -16 -70 -30 -77
-30 -7 0 -23 -7 -36 -15 -13 -9 -48 -18 -77 -22 -30 -3 -71 -14 -92 -25 -21
-11 -78 -26 -126 -33 -48 -8 -104 -21 -124 -30 -23 -9 -68 -15 -121 -15 -57 0
-89 -4 -98 -13 -26 -27 -57 -37 -110 -37 -86 -1 -188 -17 -206 -33 -14 -12
-67 -16 -277 -20 -280 -6 -285 -7 -330 -26 -38 -17 -89 -20 -485 -30 -255 -7
-335 -12 -371 -25 -40 -14 -114 -15 -630 -12 -321 3 -600 5 -619 6 -19 1 -52
-2 -72 -5 -24 -5 -54 -1 -87 10 -58 19 -83 21 -481 30 -261 6 -298 9 -325 26
-26 15 -65 19 -260 27 -164 7 -241 14 -270 25 -22 8 -85 18 -140 21 -122 7
-154 13 -225 36 -37 13 -92 20 -167 22 -62 2 -113 5 -113 8 0 8 -95 40 -117
40 -11 0 -30 11 -42 24 -12 13 -39 26 -60 30 -21 3 -47 17 -61 31 -13 14 -29
25 -36 25 -7 0 -26 11 -42 25 -17 14 -41 25 -55 25 -15 0 -43 11 -63 25 -21
14 -51 25 -71 25 -18 0 -41 4 -51 9 -62 32 -99 41 -160 41 -37 0 -94 7 -125
15 -77 20 -327 20 -422 0 -38 -8 -113 -15 -165 -15 -78 0 -100 4 -125 20 -16
11 -37 20 -46 20 -9 0 -36 11 -60 23 -24 13 -68 30 -98 37 -30 7 -79 26 -109
41 -30 16 -60 29 -68 29 -8 0 -14 4 -14 8 0 12 -46 32 -73 32 -12 1 -40 18
-62 40 -21 22 -55 45 -74 51 -47 16 -101 48 -133 81 -15 16 -34 28 -43 28 -8
0 -31 23 -51 50 -20 28 -41 50 -48 50 -15 0 -54 41 -70 72 -6 13 -21 24 -34
26 -21 3 -52 39 -65 75 -4 10 -20 23 -36 28 -17 6 -33 20 -36 32 -17 60 -39
96 -65 106 -20 7 -30 18 -35 43 -4 18 -13 44 -20 58 -8 14 -16 32 -19 42 -2 9
-17 22 -33 30 -24 11 -29 20 -33 68 -3 30 -11 71 -18 90 -6 19 -14 57 -17 83
-5 38 -11 50 -31 59 -26 12 -30 27 -38 159 -3 47 -12 101 -18 120 -18 48 -18
919 -1 967 7 19 15 95 19 170 6 139 18 182 49 182 12 0 15 21 15 124 0 74 -4
127 -10 131 -6 4 -7 11 -4 17 4 7 2 8 -5 4 -9 -6 -9 -12 0 -24 12 -16 11 -16
-5 0 -21 19 -27 54 -13 82 5 11 5 16 0 13 -13 -8 -16 43 -16 233 0 192 11 310
30 317 9 3 10 9 4 17 -5 7 -5 21 2 36 15 37 14 30 22 300 3 139 11 262 16 273
5 12 13 114 17 227 7 204 7 204 32 217 31 15 38 35 39 106 1 32 7 71 15 86 9
16 16 61 17 109 2 89 5 98 40 116 17 8 25 21 27 46 1 19 9 64 17 100 8 36 18
94 22 130 7 57 11 66 36 78 15 7 27 21 27 31 0 10 9 47 20 81 11 34 20 75 20
91 0 27 34 64 51 53 4 -2 10 17 14 43 3 27 13 63 21 81 7 18 14 41 14 52 0 32
11 50 41 66 18 9 29 23 29 35 0 12 6 35 14 52 8 18 17 44 20 58 3 14 17 31 31
37 14 7 27 17 29 24 35 127 53 169 74 174 23 6 72 87 72 118 0 8 16 23 35 35
23 14 35 28 35 43 0 13 7 32 15 42 8 11 15 30 15 43 0 17 10 28 34 40 24 11
42 31 60 68 16 34 34 55 48 59 15 4 31 24 47 57 13 29 36 58 51 67 16 9 41 40
56 69 16 30 38 56 49 59 19 5 65 65 65 85 0 5 18 20 41 35 22 14 48 38 57 55
10 16 21 29 26 29 5 0 35 26 67 58 63 63 132 119 166 135 13 5 26 19 29 31 8
25 33 45 56 46 9 0 30 16 45 36 15 21 42 43 60 50 17 8 44 31 60 53 18 25 41
43 64 50 20 6 44 20 54 31 10 11 23 20 28 20 6 0 25 11 44 26 18 14 45 30 61
35 15 5 39 27 53 48 21 29 36 40 65 45 22 4 51 19 67 34 15 14 27 22 27 18 0
-4 19 6 42 23 23 17 52 31 63 31 12 0 32 11 44 24 13 13 34 27 47 30 14 4 33
15 44 26 11 11 33 20 49 20 15 0 43 11 62 25 19 13 45 29 59 35 14 6 32 17 40
24 8 8 33 16 55 18 22 3 57 16 77 29 21 13 54 35 75 47 20 13 60 28 89 32 29
5 77 20 107 34 30 14 59 26 66 26 6 0 28 9 48 20 21 11 56 20 79 20 28 0 44 5
48 15 3 8 16 15 30 15 14 0 27 4 31 9 3 6 27 13 53 17 26 3 61 14 77 24 17 10
61 21 100 25 38 4 86 15 105 25 34 17 84 29 145 35 17 2 58 10 92 19 35 9 126
19 215 22 119 5 162 10 193 25 22 10 67 21 100 23 70 6 354 23 405 25 19 1 41
8 50 17 8 8 24 13 35 10 11 -3 128 -8 260 -11z m-3615 -9104 c0 -5 55 -8 123
-6 205 4 435 -10 455 -27 9 -9 31 -19 48 -22 17 -4 46 -18 65 -32 18 -13 43
-24 56 -24 23 0 120 -48 161 -81 13 -10 39 -21 58 -25 19 -3 39 -15 45 -25 5
-11 17 -19 26 -19 9 0 32 -12 52 -27 30 -24 49 -29 118 -34 57 -3 88 -10 101
-22 10 -9 28 -17 40 -17 11 0 35 -12 53 -27 26 -22 46 -29 101 -34 41 -4 75
-12 86 -22 10 -9 51 -21 92 -27 43 -7 87 -20 102 -31 21 -15 49 -20 117 -23
57 -3 97 -9 112 -19 13 -9 56 -22 95 -30 39 -8 82 -22 95 -30 18 -12 62 -18
164 -23 97 -4 147 -11 164 -21 15 -10 73 -18 169 -25 98 -7 161 -16 193 -28
42 -17 80 -19 345 -20 185 0 300 -4 302 -10 2 -6 56 -10 128 -10 69 0 123 -3
121 -7 -9 -14 234 -18 872 -16 410 2 628 6 635 13 5 5 31 10 57 10 26 0 51 5
54 10 4 6 106 10 273 10 147 0 274 4 282 10 9 6 19 5 28 -2 10 -9 21 -7 43 6
21 12 68 20 162 27 72 5 162 19 199 29 39 12 96 20 140 20 53 0 84 5 112 19
21 11 68 27 104 36 37 9 74 23 82 30 8 7 37 16 64 20 56 8 96 24 96 38 0 6 3
8 6 4 4 -3 23 1 43 8 50 20 92 8 111 -33 8 -17 27 -36 42 -43 17 -7 29 -21 33
-39 3 -16 13 -34 21 -41 8 -6 14 -19 14 -29 0 -10 16 -27 35 -39 19 -11 35
-26 35 -33 0 -33 45 -105 72 -116 20 -7 28 -17 28 -34 0 -12 9 -36 20 -53 11
-16 20 -37 20 -45 1 -8 15 -24 32 -35 20 -12 35 -32 39 -50 4 -16 12 -43 18
-60 6 -16 13 -41 15 -55 3 -16 16 -29 34 -36 24 -9 31 -19 34 -50 3 -22 10
-52 16 -69 6 -16 14 -42 17 -57 3 -18 14 -29 35 -36 27 -10 30 -15 30 -54 0
-24 6 -52 14 -63 7 -11 16 -46 20 -77 6 -49 11 -59 34 -70 24 -12 28 -21 33
-73 3 -33 13 -82 22 -108 10 -26 17 -68 17 -92 0 -43 5 -52 45 -80 17 -11 21
-29 26 -127 4 -62 11 -131 17 -153 6 -22 12 -113 12 -203 1 -90 4 -161 7 -159
2 3 16 -6 30 -19 31 -29 42 -82 38 -179 -3 -87 -11 -105 -41 -105 -17 0 -27
-8 -34 -25 -12 -33 -59 -34 -109 -2 -35 21 -44 22 -276 22 -234 0 -241 -1
-269 -22 -16 -13 -39 -23 -53 -23 -13 0 -45 -11 -71 -24 -27 -13 -65 -28 -86
-31 -27 -6 -47 -19 -73 -51 -21 -25 -49 -46 -65 -49 -49 -11 -64 -54 -59 -168
1 -32 6 -40 35 -54 32 -15 36 -15 78 6 24 11 49 21 55 21 6 0 29 20 50 43 27
31 49 46 75 51 21 4 42 15 48 25 5 10 26 22 47 26 20 3 57 16 82 28 42 20 62
22 217 22 112 0 176 -4 185 -11 8 -7 41 -19 74 -29 33 -9 69 -25 80 -36 12
-10 36 -22 53 -25 22 -4 45 -21 68 -49 19 -24 45 -46 58 -49 16 -4 32 -22 46
-52 15 -30 32 -49 50 -56 21 -7 33 -23 51 -68 19 -48 28 -60 53 -67 30 -8 31
-12 37 -73 3 -36 11 -78 17 -93 18 -44 16 -338 -3 -384 -8 -19 -15 -57 -15
-84 0 -46 -2 -49 -35 -63 -19 -8 -35 -21 -35 -28 0 -7 -9 -30 -20 -51 -11 -20
-20 -44 -20 -52 0 -9 -12 -20 -27 -26 -16 -6 -40 -29 -55 -55 -15 -25 -42 -52
-59 -62 -18 -9 -42 -26 -53 -37 -32 -31 -128 -86 -160 -92 -17 -4 -45 -17 -64
-30 -34 -22 -40 -23 -237 -20 -190 2 -205 3 -232 23 -16 12 -47 25 -70 29 -23
3 -49 15 -59 26 -9 10 -29 19 -44 19 -21 0 -29 6 -34 23 -3 13 -25 37 -49 54
-24 18 -54 48 -68 67 -31 46 -58 59 -118 60 -67 1 -99 -28 -103 -93 l-3 -46
-45 -6 c-25 -4 -67 -18 -93 -32 -27 -14 -69 -29 -95 -32 -26 -4 -61 -13 -77
-20 -17 -8 -82 -18 -145 -24 -67 -6 -129 -17 -147 -26 -35 -17 -105 -23 -338
-29 -100 -2 -151 -8 -180 -19 -22 -9 -74 -19 -115 -21 -95 -6 -2704 -7 -2722
-2 -7 3 -31 7 -53 10 -22 3 -56 10 -75 16 -19 5 -98 12 -175 15 -288 10 -355
16 -398 35 -36 16 -77 19 -279 23 -131 2 -244 9 -250 14 -27 21 -59 26 -233
34 -194 9 -224 13 -264 33 -14 8 -71 17 -126 21 -107 7 -269 52 -314 87 -13
10 -36 18 -52 18 -21 0 -37 11 -65 44 -21 25 -50 50 -66 57 -15 6 -37 26 -49
45 -11 18 -32 39 -46 46 -27 14 -59 65 -68 110 -3 16 -14 29 -28 34 -31 10
-37 22 -37 85 0 31 -7 76 -15 99 -20 58 -20 340 0 425 8 33 15 77 15 97 0 31
5 40 29 52 30 16 63 64 75 109 4 18 13 27 26 27 11 0 39 17 61 38 23 20 61 48
84 62 119 70 140 90 148 146 3 17 10 28 17 26 10 -2 11 0 2 11 -9 10 -7 19 6
38 25 35 25 36 31 264 4 130 11 221 19 238 7 18 12 80 12 169 l0 140 34 32
c29 27 34 39 39 92 6 71 28 112 66 120 51 12 71 42 71 104 0 46 -4 60 -22 77
-29 26 -46 31 -138 39 -48 3 -82 12 -93 22 -14 12 -50 18 -148 23 -71 4 -135
12 -142 17 -7 6 -43 18 -81 26 -37 9 -80 25 -95 35 -14 10 -44 21 -66 24 -22
4 -58 16 -80 27 -21 11 -45 20 -53 20 -8 0 -27 9 -43 20 -16 12 -34 20 -41 19
-20 -4 -140 61 -160 86 -10 13 -31 26 -48 30 -30 7 -83 43 -135 94 -16 16 -45
36 -62 45 -19 9 -33 24 -33 34 0 19 -56 86 -78 93 -11 4 -25 42 -52 149 -5 19
-10 68 -10 108 0 41 -4 72 -10 72 -5 0 -10 9 -10 20 0 11 4 20 9 20 4 0 11 60
14 133 4 80 12 148 21 172 8 22 15 55 16 73 0 28 5 36 30 45 17 6 33 21 36 32
15 49 50 114 64 119 22 7 128 67 178 101 34 22 58 30 110 33 37 2 74 8 82 13
20 11 40 11 40 0z m638 -1877 c20 -14 22 -23 22 -125 l0 -109 -27 -11 c-15 -5
-33 -19 -41 -30 -12 -17 -21 -19 -54 -14 -51 9 -79 37 -86 87 -4 31 -12 44
-39 61 -32 21 -34 25 -29 64 4 36 25 93 26 71 0 -4 12 0 28 8 38 20 171 19
200 -2z m-2997 -2117 c-10 -9 -11 -8 -5 6 3 10 9 15 12 12 3 -3 0 -11 -7 -18z"/>
<path d="M3605 20553 c-27 -2 -57 -10 -65 -17 -8 -7 -28 -16 -44 -20 -16 -4
-42 -18 -58 -31 -15 -13 -41 -26 -57 -30 -16 -3 -37 -15 -47 -26 -9 -10 -22
-19 -28 -19 -6 0 -30 -23 -54 -50 -24 -28 -49 -50 -57 -50 -7 0 -17 -10 -21
-22 -4 -13 -15 -34 -25 -47 -11 -13 -19 -31 -19 -40 0 -9 -13 -23 -29 -32 -22
-13 -31 -27 -36 -60 -4 -24 -14 -53 -21 -64 -8 -11 -14 -39 -14 -62 0 -29 -4
-43 -13 -43 -8 0 -22 -9 -31 -19 -15 -16 -19 -45 -23 -163 -2 -79 0 -172 4
-208 7 -55 12 -66 33 -77 19 -9 27 -23 32 -55 11 -74 49 -167 70 -174 11 -3
30 -30 45 -65 18 -40 35 -65 54 -74 15 -8 31 -25 34 -37 9 -28 54 -78 71 -78
7 0 27 -18 44 -40 20 -26 40 -40 54 -40 13 0 31 -10 42 -21 10 -12 38 -30 60
-39 23 -10 45 -23 48 -29 8 -13 184 -15 203 -3 7 4 19 25 28 46 9 21 25 41 36
43 11 3 31 28 46 60 16 32 38 60 54 68 15 8 32 27 38 42 19 48 46 88 67 97 10
5 30 27 44 49 14 21 40 51 57 64 18 14 46 48 63 75 17 28 39 52 50 55 10 3 32
25 50 49 17 24 37 44 44 44 14 0 54 41 79 83 10 15 24 27 33 27 14 0 26 10
135 109 31 28 61 51 66 51 14 0 60 61 64 85 3 11 17 26 32 33 36 17 35 47 -3
67 -22 12 -30 23 -30 43 0 15 -6 36 -14 47 -7 11 -16 34 -20 50 -5 21 -15 34
-35 42 -22 8 -30 19 -35 47 -8 44 -113 152 -158 161 -17 4 -38 22 -55 46 -16
21 -39 42 -53 46 -31 7 -149 69 -172 90 -13 12 -63 15 -265 18 -136 1 -270 1
-298 -2z"/>
<path d="M7360 15451 c-19 -10 -64 -21 -99 -25 -49 -6 -74 -14 -100 -35 -20
-16 -46 -31 -58 -35 -12 -4 -38 -25 -56 -47 -19 -21 -39 -39 -45 -39 -13 0
-67 -68 -76 -97 -4 -11 -18 -24 -31 -27 -47 -12 -44 -127 3 -134 12 -2 27 -11
34 -21 31 -44 101 -49 143 -12 11 10 28 21 37 24 10 3 30 29 45 56 18 32 37
52 52 56 13 3 38 17 56 31 17 13 38 24 45 24 7 0 28 10 47 21 28 17 56 22 143
27 108 5 109 4 172 -28 35 -18 76 -43 91 -56 24 -21 39 -24 103 -24 68 0 77 2
99 26 45 49 24 176 -31 190 -12 3 -41 25 -64 49 -39 40 -48 44 -108 51 -37 4
-80 15 -97 25 -44 27 -254 28 -305 0z"/>
<path d="M18583 19907 c0 -8 6 -14 14 -14 9 0 10 4 2 14 -6 7 -12 13 -14 13
-1 0 -2 -6 -2 -13z"/>
<path d="M11265 15459 c-74 -35 -80 -42 -83 -107 -3 -59 -2 -61 28 -77 16 -8
31 -22 31 -30 1 -8 2 -21 3 -27 2 -7 -1 -20 -5 -28 -4 -8 1 -30 11 -50 10 -19
21 -56 25 -81 8 -52 12 -59 40 -75 15 -8 22 -26 27 -70 5 -32 15 -76 23 -97 9
-22 15 -70 15 -115 0 -84 4 -96 36 -106 20 -6 22 -16 29 -129 4 -67 12 -131
18 -142 7 -12 14 -105 17 -229 3 -138 9 -211 16 -213 45 -15 45 -15 50 -306 4
-162 2 -277 -3 -277 -5 0 -5 -25 2 -57 10 -53 14 -60 50 -77 34 -17 44 -18 84
-7 55 15 63 22 86 86 15 41 18 79 17 231 0 127 -4 189 -13 206 -9 16 -14 93
-16 258 -2 129 -6 241 -8 249 -3 8 -12 10 -22 7 -10 -4 -14 -4 -10 0 4 4 -1
13 -10 20 -15 10 -18 33 -20 141 -2 84 -8 144 -18 172 -8 24 -15 76 -15 115 0
80 -4 91 -43 105 -27 10 -27 12 -27 101 0 58 -6 103 -16 129 -8 21 -14 58 -12
82 5 65 27 73 189 64 128 -7 130 -8 174 -42 24 -20 47 -44 50 -54 4 -11 10
-17 14 -15 7 5 33 -40 44 -76 7 -19 82 -34 116 -23 27 8 50 52 57 109 8 52
-24 126 -65 152 -13 10 -36 30 -50 47 -14 16 -41 36 -61 44 -19 8 -42 23 -50
33 -11 14 -31 20 -75 23 -36 2 -71 10 -87 21 -39 25 -223 20 -242 -6 -17 -24
-98 -25 -117 -2 -7 8 -25 22 -41 30 -15 8 -28 23 -28 33 0 45 -70 82 -115 60z"/>
<path d="M15540 15150 c-25 -8 -50 -18 -55 -21 -6 -4 -29 -10 -52 -14 -32 -5
-46 -14 -65 -41 -13 -19 -37 -41 -55 -49 -43 -18 -63 -53 -67 -117 -5 -88 2
-98 78 -98 84 0 106 9 140 58 19 27 38 43 59 48 17 3 44 16 59 27 24 17 42 20
135 20 98 0 113 -3 158 -27 27 -14 57 -26 67 -26 17 0 58 -49 58 -70 0 -6 16
-18 35 -26 19 -8 35 -21 35 -30 0 -9 9 -29 21 -45 18 -26 26 -29 75 -29 75 0
104 28 104 99 0 63 -7 80 -37 92 -13 5 -28 21 -33 36 -20 54 -33 72 -61 82
-16 5 -34 21 -41 35 -14 32 -42 51 -88 61 -19 4 -43 14 -53 23 -19 17 -45 19
-257 25 -83 2 -128 -2 -160 -13z"/>
<path d="M12985 14980 c-4 -16 -3 -35 1 -41 4 -6 6 -41 6 -78 -2 -57 2 -71 26
-106 15 -22 37 -42 47 -43 42 -8 55 -32 55 -101 0 -36 -7 -84 -15 -106 -19
-54 -20 -233 -1 -277 8 -18 21 -53 28 -78 9 -32 19 -46 33 -48 13 -2 29 -22
45 -55 18 -37 32 -53 52 -58 15 -4 39 -16 53 -27 14 -12 39 -23 54 -27 16 -3
37 -15 47 -26 16 -17 32 -19 200 -19 l183 0 34 30 c19 17 39 30 45 30 5 0 22
16 37 36 l28 37 -1 222 c0 178 -3 229 -16 260 -17 40 -21 102 -8 122 4 7 24
19 44 27 63 27 79 61 80 170 1 108 -7 126 -58 126 -50 0 -74 -29 -74 -90 0
-46 -2 -50 -27 -56 -16 -4 -37 -14 -48 -24 -33 -29 -61 -30 -96 -4 -18 13 -48
27 -68 30 -34 7 -70 37 -71 61 0 10 -28 31 -94 70 -22 13 -51 9 -76 -12 -8 -7
-28 -15 -44 -19 -15 -4 -45 -21 -66 -37 -40 -32 -112 -50 -124 -30 -4 6 -17
11 -30 11 -33 0 -46 19 -46 70 0 67 -20 90 -80 90 -46 0 -49 -2 -55 -30z m543
-289 c6 -17 109 -81 142 -88 40 -8 59 -41 68 -120 6 -60 10 -69 33 -80 25 -12
26 -18 32 -110 3 -54 3 -118 -1 -143 -6 -38 -11 -46 -37 -55 -17 -5 -41 -18
-55 -27 -37 -27 -184 -25 -225 2 -16 11 -40 20 -51 20 -50 0 -91 28 -119 82
l-27 52 5 186 c4 163 7 190 25 224 12 21 23 43 25 49 8 25 177 32 185 8z"/>
</g>
</svg>
